<?xml version="1.0" encoding="UTF-8" standalone="no"?>
<svg
   xmlns:dc="http://purl.org/dc/elements/1.1/"
   xmlns:cc="http://creativecommons.org/ns#"
   xmlns:rdf="http://www.w3.org/1999/02/22-rdf-syntax-ns#"
   xmlns:svg="http://www.w3.org/2000/svg"
   xmlns="http://www.w3.org/2000/svg"
   width="50"
   height="50"
   viewBox="0 0 49.999997 49.999997"
   id="svg2"
   version="1.1">
  <defs
     id="defs4" />
  <metadata
     id="metadata7">
    <rdf:RDF>
      <cc:Work
         rdf:about="">
        <dc:format>image/svg+xml</dc:format>
        <dc:type
           rdf:resource="http://purl.org/dc/dcmitype/StillImage" />
        <dc:title></dc:title>
      </cc:Work>
    </rdf:RDF>
  </metadata>
  <g
     id="layer1"
     transform="matrix(0.98053322,0,0,0.98053322,0.49004832,-982.37414)">
    <path
       style="fill:#ff0000;fill-opacity:1;fill-rule:evenodd;stroke:none;stroke-width:1px;stroke-linecap:butt;stroke-linejoin:miter;stroke-opacity:1"
       d="m 25.506352,1008.168 -8.649431,38.954 -8.9651042,-4.7351 -1.8309015,-11.1748 3.2829958,-11.6799 5.2401659,-10.1646 3.788072,-4.2932 5.461137,-2.1465 z"
       id="indexColourLowlight" />
    <path
       style="fill:#00ff00;fill-opacity:1;fill-rule:evenodd;stroke:none;stroke-width:1px;stroke-linecap:butt;stroke-linejoin:miter;stroke-opacity:1"
       d="m 27.779195,1009.7464 -8.649431,30.7465 9.659584,11.1117 9.596449,-4.672 4.861359,-8.3969 -7.954951,-27.3372 z"
       id="indexColourHighlight" />
    <path
       style="fill:#0000ff;fill-opacity:1;stroke:none"
       d="m 23.811645,1052.3338 c -5.050707,-0.3545 -9.322068,-2.242 -12.680969,-5.6037 -2.8939581,-2.8964 -4.6461331,-6.5002 -5.2107461,-10.7173 -0.126811,-0.9472 -0.126659,-3.666 2.65e-4,-4.7449 0.543449,-4.6198 1.87793,-9.3421 4.001008,-14.1582 1.6578221,-3.7607 3.6842401,-7.073 5.8780491,-9.6081 0.618985,-0.7152 1.958583,-2.0163 2.60423,-2.5293 4.444966,-3.532 9.041811,-3.4573 13.422963,0.2181 0.705053,0.5915 1.861724,1.7409 2.496208,2.4805 0.930439,1.0847 2.241335,2.9277 3.120938,4.3878 3.543004,5.8811 6.217127,13.9155 6.673692,20.051 0.419022,5.631 -1.44954,10.7903 -5.303856,14.6446 -3.089924,3.09 -7.050791,4.9684 -11.557905,5.4813 -0.682983,0.078 -2.853894,0.1396 -3.443877,0.098 z m 6.330436,-1.8034 c 3.019593,-0.8557 5.581711,-2.3268 7.718732,-4.4317 1.690507,-1.6651 2.901835,-3.4274 3.808327,-5.5408 0.239088,-0.5573 0.713931,-1.8968 0.713931,-2.0138 0,-0.069 -0.70298,-0.3305 -1.22449,-0.456 -2.885177,-0.6944 -6.203625,0.3769 -8.662566,2.7964 -2.442768,2.4037 -3.687488,5.7954 -3.220775,8.7762 0.09382,0.5992 0.205867,1.0204 0.271441,1.0204 0.03498,0 0.302906,-0.068 0.5954,-0.1507 z m -18.054975,-8.1632 c 3.522791,-0.7508 6.298246,-3.9883 7.030059,-8.2003 0.281647,-1.6211 0.222933,-3.487 -0.158656,-5.0419 -1.060202,-4.3202 -4.186333,-7.2983 -7.929744,-7.5541 -0.568474,-0.039 -1.5960491,0.05 -1.6894311,0.1463 -0.07566,0.078 -0.557606,1.5664 -0.91176,2.816 -0.691592,2.44 -1.119887,4.5549 -1.384566,6.8367 -0.127165,1.0963 -0.126332,3.6165 0.0015,4.5408 0.287482,2.0786 0.780657,3.7097 1.669732,5.5222 0.354522,0.7228 0.481776,0.9365 0.57025,0.9579 0.635805,0.1536 2.0259281,0.1419 2.8026141,-0.024 z m 15.070969,-3.6762 c 1.118649,-0.2836 2.029932,-1.0722 2.623343,-2.2701 0.87854,-1.7734 0.745082,-4.0686 -0.330671,-5.6867 -0.351982,-0.5295 -1.014664,-1.1297 -1.520841,-1.3774 -0.561119,-0.2747 -0.934364,-0.3652 -1.516221,-0.3676 -0.590515,0 -1.010916,0.099 -1.531997,0.3696 -1.034539,0.5372 -1.84513,1.5862 -2.213201,2.8641 -0.370718,1.2871 -0.288874,2.7695 0.218768,3.9624 0.333214,0.7831 0.983109,1.5899 1.632469,2.0268 0.78504,0.5282 1.751971,0.7037 2.638351,0.4789 z m 5.718754,-13.0642 c 1.638888,-0.2228 3.051183,-1.3938 3.714399,-3.0797 0.85647,-2.1771 0.504532,-4.8263 -0.928881,-6.9921 -0.403427,-0.6095 -1.340412,-1.5693 -1.880231,-1.9259 -1.98416,-1.3109 -4.100197,-1.3301 -5.778011,-0.053 -1.370233,1.0434 -2.126435,2.9163 -2.032691,5.0344 0.154177,3.4837 2.635641,6.5776 5.625166,7.0137 0.43498,0.063 0.824917,0.064 1.280249,0 z m -14.345796,-13.6757 c 0.644804,-0.079 1.234622,-0.2596 1.890396,-0.5789 1.588418,-0.7732 2.846915,-2.1867 3.454473,-3.8798 0.424858,-1.184 0.42821,-2.6867 0.0081,-3.6368 -0.134326,-0.3037 -0.04843,-0.2922 -0.797671,-0.1072 -2.599491,0.6421 -5.367444,2.8571 -7.882038,6.3076 l -0.386749,0.5307 0.275107,0.2801 c 0.491418,0.5003 1.143028,0.8486 1.88225,1.0062 0.656814,0.14 0.936258,0.1541 1.556121,0.078 z"
       id="indexColour" />
    <path
       style="fill:none;stroke:#000000;stroke-width:0.99999988;stroke-miterlimit:4;stroke-dasharray:none;stroke-opacity:1"
       d="m 23.811645,1052.3338 c -5.050707,-0.3545 -9.322066,-2.242 -12.680967,-5.6037 -2.8939581,-2.8964 -4.6461331,-6.5002 -5.2107451,-10.7173 -0.126811,-0.9472 -0.126659,-3.666 2.65e-4,-4.7449 0.543448,-4.6198 1.877929,-9.3421 4.001007,-14.1582 1.6578221,-3.7607 3.6842401,-7.073 5.8780481,-9.6081 0.618985,-0.7152 1.958583,-2.0163 2.60423,-2.5293 4.444965,-3.532 9.041809,-3.4573 13.422961,0.2181 0.705053,0.5915 1.861724,1.7409 2.496208,2.4805 0.930438,1.0847 2.241334,2.9277 3.120937,4.3878 3.543004,5.8811 6.217126,13.9155 6.673691,20.051 0.419022,5.631 -1.449539,10.7903 -5.303855,14.6446 -3.089924,3.09 -7.05079,4.9684 -11.557904,5.4813 -0.682982,0.078 -2.853893,0.1396 -3.443876,0.098 z"
       id="outline" />
  </g>
</svg>
