<?xml version="1.0" encoding="UTF-8" standalone="no"?>
<svg
   xmlns:dc="http://purl.org/dc/elements/1.1/"
   xmlns:cc="http://creativecommons.org/ns#"
   xmlns:rdf="http://www.w3.org/1999/02/22-rdf-syntax-ns#"
   xmlns:svg="http://www.w3.org/2000/svg"
   xmlns="http://www.w3.org/2000/svg"
   version="1.1"
   id="svg2"
   viewBox="0 0 50.000004 34.363788"
   height="34.363789"
   width="50.000004">
  <defs
     id="defs4" />
  <metadata
     id="metadata7">
    <rdf:RDF>
      <cc:Work
         rdf:about="">
        <dc:format>image/svg+xml</dc:format>
        <dc:type
           rdf:resource="http://purl.org/dc/dcmitype/StillImage" />
        <dc:title></dc:title>
      </cc:Work>
    </rdf:RDF>
  </metadata>
  <g
     transform="translate(1.5990314e-6,-1017.9984)"
     id="layer1">
    <path
       id="path66777"
       d=""
       style="fill:#000000" />
    <path
       id="path66775"
       d=""
       style="fill:#000000" />
    <path
       id="path66773"
       d=""
       style="fill:#000000" />
    <g
       transform="matrix(0.08107686,0,0,0.08107686,62.950504,952.78942)"
       id="g67088">
      <path
         id="path67094"
         d="m -560.00781,1226.4721 -9.375,-1.6561 -8.42229,-3.8253 -8.42227,-3.8253 -6.9144,-5.3978 -6.91441,-5.3978 -6.1577,-7.6817 c -12.47859,-15.5671 -21.47764,-32.096 -36.99133,-67.9433 -17.05146,-39.4006 -31.26774,-64.4553 -47.52067,-83.75 -3.76426,-4.4687 -8.65824,-10.3071 -10.87552,-12.9741 l -4.03141,-4.849 -8.55921,-5.5333 c -10.21134,-6.6013 -24.29126,-13.3373 -32.06579,-15.3406 -3.09375,-0.7972 -9.41736,-2.8702 -14.05247,-4.6067 l -8.42746,-3.1572 -2.38079,-3.3435 -2.3808,-3.34351 -1.46533,-5.44182 -1.46533,-5.44182 0.77248,-5.17171 c 0.42486,-2.84445 1.92684,-10.79673 3.33773,-17.67173 l 2.56526,-12.5 2.51734,-4.375 c 2.51468,-4.37037 8.70345,-21.21472 10.26021,-27.92581 1.19121,-5.13524 16.29747,-32.76061 22.32371,-40.82419 14.98215,-20.04726 35.45309,-36.54874 62.14545,-50.095 l 8.125,-4.12341 11.95894,-0.527 11.95894,-0.527 7.5334,6.26936 7.53338,6.26935 1.61664,5.77405 c 0.88915,3.17573 2.15006,6.10374 2.80204,6.50667 l 1.18541,0.73262 7.55105,-7.64525 7.55106,-7.64525 7.16602,-4.35313 7.16601,-4.35312 14.74607,-3.1882 c 8.11034,-1.75351 15.09777,-3.40556 15.52763,-3.67123 0.42986,-0.26567 15.67022,-0.81672 33.86749,-1.22456 l 33.08592,-0.74152 5,-1.22964 c 2.75,-0.6763 13.32569,-2.36754 23.50154,-3.7583 l 18.50152,-2.52867 25.24848,-0.0747 25.24846,-0.0747 11.875,1.98246 c 22.73933,3.7962 35.48085,8.46861 51.96646,19.05647 7.32315,4.70329 16.34549,11.82823 22.8707,18.06098 2.60052,2.48396 6.37287,5.57487 8.38302,6.86869 2.01015,1.29382 4.67992,3.62073 5.93281,5.17091 l 2.27799,2.81851 4.95418,0.7922 4.95419,0.79221 8.39283,6.86303 c 4.61605,3.77465 8.67407,7.29397 9.01782,7.8207 0.34375,0.52673 3.2216,3.12889 6.39523,5.78257 3.17362,2.65369 13.3646,11.57489 22.64662,19.82489 9.28201,8.25 21.73229,19.19728 27.66728,24.32728 l 10.79087,9.32727 0,3.45641 0,3.4564 3.07168,2.01265 c 4.26892,2.7971 17.8629,16.24907 23.44771,23.20275 l 4.64439,5.78276 3.30642,9.84224 3.30643,9.84224 -0.8771,13.5677 -0.87712,13.5676 -4.71382,12.7068 c -2.5926,6.9887 -5.88326,14.999 -7.31256,17.8007 l -2.59874,5.0939 -4.76115,4.0368 c -2.61863,2.2203 -6.62089,5.6321 -8.89391,7.582 l -4.13279,3.5451 -18.36721,9.371 -18.36723,9.3711 -18.125,5.7385 -18.125,5.7384 -17.94321,3.1446 -17.94323,3.1445 -18.93177,-0.018 -18.93179,-0.018 -5,-1.3392 c -2.75,-0.7366 -7.84299,-1.8516 -11.31776,-2.4778 l -6.31776,-1.1385 -8.05724,0.4374 -8.05724,0.4375 -3.37212,1.3607 -3.37213,1.3607 -2.05107,3.1304 -2.05108,3.1303 -1.10497,8.8001 c -1.42789,11.3717 -4.06478,21.4313 -8.42837,32.1539 l -3.5011,8.6032 -4.21042,6.2094 -4.21043,6.2093 -11.97416,11.9567 -11.97415,11.9568 -8.75,5.6696 -8.75,5.6696 -10,4.1098 c -5.5,2.2605 -13.9375,5.4637 -18.75,7.1184 l -8.75,3.0086 -13.75,2.4888 -13.75,2.4888 -16.25,0.5206 -16.25,0.5207 -9.375,-1.6561 z m 53.75,-3.9062 11.875,-2.0765 11.875,-3.7292 11.875,-3.7292 12.65919,-6.2325 12.65917,-6.2324 10.28047,-8.2254 10.28046,-8.2254 7.35631,-8.8727 7.35631,-8.8728 4.28348,-8.125 c 2.35591,-4.4687 5.4512,-11.6054 6.87842,-15.8591 l 2.59495,-7.7342 1.771,-11.7889 1.77099,-11.789 2.02565,-3.9171 2.02565,-3.9172 8.34019,-3.7816 c 4.5871,-2.0799 12.30639,-4.8523 17.15397,-6.1609 4.84759,-1.3086 9.99937,-2.744 11.44839,-3.1899 l 2.6346,-0.8106 0.69053,5.1483 0.69053,5.1483 1.51543,1.8259 1.51542,1.826 20.15944,-0.023 20.15945,-0.023 12.9788,-1.8448 c 17.24556,-2.4511 30.19163,-5.6349 48.05483,-11.8179 l 14.78362,-5.1171 13.8552,-6.9486 c 15.41049,-7.7287 23.4867,-12.5391 23.38531,-13.929 -0.037,-0.507 -3.36262,-2.5325 -7.39031,-4.5011 l -7.32305,-3.5793 -12.30885,-11.4207 c -15.03871,-13.9536 -20.62627,-18.372 -27.88844,-22.053 l -5.60288,-2.8398 -14.67875,-1.02 -14.67875,-1.02 -4.9528,-1.3336 -4.9528,-1.3337 -13.11368,-8.6429 -13.11366,-8.6429 -6.0269,-2.10503 -6.02689,-2.10502 -18.73724,-1.13243 -18.73723,-1.13242 -5.01277,-1.3485 c -2.75702,-0.74173 -6.70026,-2.18281 -8.76276,-3.20247 l -3.75,-1.85392 -10.00544,-10.51505 -10.00542,-10.51505 -5.51576,0 -5.51577,0 -7.6038,4.18256 c -4.1821,2.3004 -15.61943,9.08895 -25.41631,15.08567 l -17.8125,10.90312 0,1.28163 0,1.28162 6.5625,-0.91761 c 3.60938,-0.50469 11.388,-0.88635 17.28584,-0.84815 l 10.72334,0.0695 5.52602,1.48801 5.52604,1.488 13.75064,14.11224 13.75062,14.1123 7.12745,4.5056 c 3.9201,2.478 7.42604,4.5055 7.79095,4.5055 0.36493,0 5.9927,2.5581 12.50618,5.6845 l 11.84268,5.6845 4.91904,5.5883 4.91903,5.5884 0.785,4.1843 0.785,4.1844 -0.7982,2.0801 -0.79819,2.08 -2.66446,-0.9216 -2.66448,-0.9216 -23.75,-0.053 -23.75,-0.053 -3.36894,-1.875 -3.36893,-1.875 -4.77804,-6.84 -4.77804,-6.84 -4.22537,-2.8475 -4.22539,-2.8475 -5.50221,0 -5.50223,0 -3.66676,1.8962 -3.66678,1.8962 -2.08908,4.0398 -2.08908,4.0399 -2.27711,19.8126 -2.2771,19.8127 -2.05289,7.3165 -2.05289,7.3164 -2.35551,2.1317 -2.3555,2.1317 -5.1186,-1.5336 -5.1186,-1.5335 -5.56046,-5.1255 -5.56047,-5.1254 -4.51261,-8.2253 c -2.48195,-4.524 -5.79412,-9.9675 -7.36041,-12.0968 l -2.84778,-3.8714 -10.39461,-4.0967 c -5.71703,-2.2532 -14.89461,-6.4047 -20.39461,-9.2257 l -10,-5.1289 -12.94842,-10.4709 -12.94842,-10.4708 -5.70772,-2.5248 -5.70773,-2.5248 -11.34386,0.8144 -11.34385,0.8143 -7.25277,-1.3595 -7.25277,-1.3596 -14.27921,-6.1141 -14.27921,-6.114 -7.84301,-1.4262 -7.84303,-1.4262 -6.25,0.8246 -6.25,0.8247 -9.1398,3.6591 -9.13981,3.6592 -5.63231,3.8751 c -3.09777,2.1313 -5.92535,4.6388 -6.28352,5.5722 l -0.6512,1.697 7.72322,9.1222 c 16.78824,19.8292 27.27138,38.3119 48.0677,84.7472 6.92776,15.4688 15.61826,33.864 19.31221,40.8783 l 6.71627,12.7532 7.97058,10.0799 7.97057,10.08 8.41805,6.1885 8.41804,6.1885 7.5,2.8103 c 4.125,1.5457 10.875,3.5172 15,4.3811 l 7.5,1.5709 16.875,-0.5166 16.875,-0.5166 11.875,-2.0764 z m -201.34002,-214.7073 9.56278,-9.13625 11.28285,-6.97928 c 6.20557,-3.83861 14.72792,-8.71836 18.93857,-10.84389 10.3446,-5.22193 32.30832,-13.90437 35.17351,-13.90437 l 2.31742,0 5.46995,-2.99669 5.46994,-2.99668 48.125,-15.85702 c 26.46875,-8.72136 57.6875,-19.23772 69.375,-23.36969 l 21.25,-7.51267 18.125,-8.70194 c 20.37856,-9.78387 33.64415,-17.32202 68.41776,-38.87832 l 24.04277,-14.90419 3.14473,-3.73731 3.14474,-3.7373 0,-5.59118 0,-5.59116 -1.84222,-3.56246 -1.84222,-3.56246 -5.29068,-4.52863 -5.29068,-4.52862 -6.29447,-1.86926 -6.29447,-1.86926 -19.38513,-2.60402 -19.38513,-2.60402 -20,0.65836 -20,0.65836 -9.19894,2.04814 c -37.98128,8.45652 -87.47233,30.15633 -110.65604,48.51817 l -4.97204,3.93794 -9.07979,13.9256 -9.07978,13.92558 -4.11767,4.11768 -4.11768,4.11768 -5.01403,2.19132 -5.01403,2.19131 -7.5,0.84351 c -4.125,0.46393 -16.92694,2.21888 -28.44875,3.89988 l -20.94874,3.05638 -11.68209,2.9634 -11.68209,2.96341 -4.99072,2.54607 -4.99072,2.54608 -2.20933,3.37186 -2.20934,3.37186 -6.51963,26.53421 -6.51964,26.53422 -2.46026,4.22842 -2.46027,4.22844 -3.75308,0.37315 -3.75309,0.37316 -1.94662,-2.24816 c -1.07064,-1.23648 -2.58877,-4.16021 -3.37363,-6.49717 l -1.427,-4.24904 -0.007,-5.75096 c -0.01,-7.96294 -1.91502,-18.82354 -4.30507,-24.54373 l -2.00559,-4.80006 -1.70942,1.7964 -1.70943,1.79641 -2.53224,11.25 c -1.39273,6.1875 -2.89203,14.06522 -3.33178,17.50605 l -0.79953,6.25606 1.219,5.42539 1.21901,5.4254 2.86486,3.04951 2.86487,3.0495 15.67878,5.01148 15.67878,5.0115 6.875,3.6361 c 3.78125,1.9998 7.65624,3.6626 8.6111,3.695 l 1.73611,0.059 9.56278,-9.1362 z m 451.92406,-56.17629 c 0.34741,-1.54687 0.78001,-5.34375 0.96131,-8.4375 l 0.32965,-5.625 5,0.24613 c 2.75,0.13537 12.59375,0.60482 21.875,1.04321 l 16.875,0.79707 4.90812,-1.08007 4.90812,-1.08006 0.44628,-1.33885 0.44629,-1.33885 -18.47941,-16.09737 c -10.16366,-8.85353 -28.493,-25.02637 -40.73184,-35.93962 l -22.25243,-19.84228 -7.12257,-1.80673 -7.12256,-1.80675 -18.19623,-0.72752 -18.19622,-0.72751 -10.55378,2.10486 -10.55377,2.10487 -7.81438,3.61743 c -4.2979,1.9896 -18.3604,9.62558 -31.25,16.96885 l -23.43562,13.35141 -3.4375,3.19725 -3.4375,3.19725 0,2.17633 0,2.17632 7.10535,2.65846 c 3.90794,1.46214 15.86106,5.17493 26.5625,8.25063 l 19.45715,5.59218 36.875,7.48668 36.875,7.48669 9.375,3.12228 9.375,3.12226 8.75,4.88446 c 4.8125,2.68645 9.44241,4.92755 10.28869,4.98023 l 1.53869,0.0958 0.63166,-2.8125 z"
         style="fill:#eddbcf" />
      <path
         id="path67092"
         d="m -559.38281,1224.1046 c -4.125,-0.8639 -10.875,-2.8354 -15,-4.3811 l -7.5,-2.8103 -8.41804,-6.1885 -8.41805,-6.1885 -7.97057,-10.08 -7.97058,-10.0799 -6.71627,-12.7532 c -3.69395,-7.0143 -12.38445,-25.4095 -19.31221,-40.8783 -20.79632,-46.4353 -31.27946,-64.918 -48.0677,-84.7472 l -7.72322,-9.1222 0.6512,-1.697 c 0.35817,-0.9334 3.18575,-3.4409 6.28352,-5.5722 l 5.63231,-3.8751 9.13981,-3.6592 9.1398,-3.6591 6.25,-0.8247 6.25,-0.8246 7.84303,1.4262 7.84301,1.4262 14.27921,6.114 14.27921,6.1141 7.25277,1.3596 7.25277,1.3595 11.34385,-0.8143 11.34386,-0.8144 5.70773,2.5248 5.70772,2.5248 12.94842,10.4708 12.94842,10.4709 10,5.1289 c 5.5,2.821 14.67758,6.9725 20.39461,9.2257 l 10.39462,4.0966 2.84777,3.8715 c 1.56629,2.1293 4.87846,7.5728 7.36041,12.0967 l 4.51262,8.2253 5.56046,5.1255 5.56046,5.1254 5.1186,1.5336 5.1186,1.5336 2.3555,-2.1317 2.35551,-2.1317 2.05289,-7.3165 2.05289,-7.3164 2.2771,-19.8127 2.27711,-19.8127 2.08908,-4.0398 2.08908,-4.0399 3.66678,-1.8961 3.66676,-1.8962 5.50223,0 5.50221,0 4.22539,2.8475 4.22537,2.8475 4.77804,6.84 4.77804,6.84 3.36893,1.875 3.36894,1.875 23.75,0.053 23.75,0.053 2.66448,0.9216 2.66446,0.9216 0.79819,-2.08 0.7982,-2.0801 -0.785,-4.1844 -0.785,-4.1844 -4.91903,-5.5883 -4.91904,-5.5883 -11.84268,-5.6845 c -6.51348,-3.1265 -12.14125,-5.6845 -12.50618,-5.6845 -0.36491,0 -3.87085,-2.0275 -7.79095,-4.5056 l -7.12745,-4.5056 -13.75062,-14.1122 -13.75064,-14.11228 -5.52604,-1.488 -5.52602,-1.48801 -10.72334,-0.0695 c -5.89784,-0.0383 -13.67646,0.34346 -17.28584,0.84815 l -6.5625,0.91761 0,-1.28162 0,-1.28163 17.8125,-10.90312 c 9.79688,-5.99671 21.23421,-12.78526 25.41631,-15.08566 l 7.6038,-4.18253 5.51577,0 5.51576,0 10.00542,10.51505 10.00544,10.51505 3.75,1.85392 c 2.0625,1.01965 6.00574,2.46074 8.76276,3.20242 l 5.01276,1.3485 18.73724,1.13242 18.73724,1.13243 6.02689,2.10502 6.0269,2.10503 13.11366,8.64295 13.11367,8.6429 4.9528,1.3336 4.9528,1.3337 14.67876,1.0199 14.67874,1.02 5.60289,2.8399 c 7.26216,3.6809 12.84973,8.0993 27.88844,22.0529 l 12.30885,11.4207 7.32305,3.5793 c 4.02769,1.9686 7.35332,3.9941 7.39031,4.5011 0.10138,1.3899 -7.97482,6.2004 -23.38531,13.929 l -13.8552,6.9487 -14.78363,5.117 c -17.8632,6.183 -30.80926,9.3668 -48.05482,11.818 l -12.9788,1.8447 -20.15945,0.023 -20.15944,0.023 -1.51542,-1.826 -1.51543,-1.826 -0.69054,-5.1483 -0.69052,-5.1483 -2.6346,0.8107 c -1.44903,0.4458 -6.6008,1.8813 -11.44839,3.1899 -4.84759,1.3085 -12.56687,4.0809 -17.15397,6.1608 l -8.34019,3.7816 -2.02565,3.9172 -2.02565,3.9172 -1.77099,11.7889 -1.771,11.789 -2.59495,7.7341 c -1.42722,4.2538 -4.52251,11.3904 -6.87842,15.8592 l -4.28348,8.125 -7.35631,8.8727 -7.35631,8.8728 -10.28047,8.2254 -10.28046,8.2254 -12.65917,6.2324 -12.65919,6.2324 -11.875,3.7292 -11.875,3.7293 -11.875,2.0764 -11.875,2.0765 -16.875,0.5165 -16.875,0.5166 -7.5,-1.5708 z m 57.78076,-5.2674 15.62108,-3.1629 11.42407,-4.4049 c 14.46658,-5.578 25.28325,-11.4723 36.59578,-19.9423 l 8.92169,-6.6798 6.70331,-7.5907 c 3.68682,-4.1749 8.80837,-11.0541 11.38122,-15.287 l 4.6779,-7.6962 3.70807,-9.6154 3.70807,-9.6153 1.47668,-11.5145 1.47666,-11.5145 2.63736,-5.2219 2.63735,-5.222 8.69978,-4.1555 8.69976,-4.1556 7.55024,-1.8398 c 4.15262,-1.0118 9.62935,-2.7292 12.1705,-3.8164 l 4.62028,-1.9768 1.87464,0.7194 1.87463,0.7194 0.38008,6.6276 0.38009,6.6277 24.375,-0.102 24.375,-0.102 14.03435,-2.7428 c 17.95206,-3.5085 31.76493,-7.529 48.0106,-13.9744 11.67429,-4.6317 31.69494,-14.5945 35.80518,-17.8175 l 1.60011,-1.2548 -5.9941,-3.4233 c -3.29675,-1.8829 -8.8807,-6.0187 -12.40878,-9.1908 -3.52807,-3.172 -6.89453,-5.7517 -7.48102,-5.7325 -0.58649,0.019 -3.27591,1.7066 -5.97651,3.75 -2.7006,2.0433 -5.58485,3.7152 -6.40944,3.7152 -0.8246,0 -2.23365,0.8848 -3.13121,1.9663 -2.15665,2.5986 -9.5899,6.3287 -18.40822,9.2374 -3.92752,1.2955 -10.9491,3.7994 -15.60348,5.5643 l -8.46254,3.2089 -5.13521,0.6452 -5.1352,0.6452 1.32602,-1.5978 1.32603,-1.5977 -8.51074,4.1059 -8.51073,4.106 -15.46756,1.1587 c -8.50715,0.6372 -24.1863,1.2573 -34.84255,1.378 l -19.375,0.2193 -13.60549,2.9801 -13.60548,2.9801 -5.14452,0 -5.14451,-0.01 -4.0625,-2.4769 -4.0625,-2.477 0,-4.1996 0,-4.1997 2.1875,-1.8056 c 1.20313,-0.9931 4.32589,-2.7725 6.93946,-3.9543 l 4.75195,-2.1486 -2.25195,-3.9625 c -1.23857,-2.1793 -4.53743,-6.3842 -7.3308,-9.3442 l -5.07882,-5.3818 -3.67118,1.0819 c -2.01913,0.595 -5.19092,1.7888 -7.04842,2.6529 l -3.37726,1.5711 -1.74773,3.8894 c -3.56941,7.9431 -4.67689,11.5058 -4.70942,15.15 -0.0184,2.0566 -0.0381,7.8859 -0.0439,12.954 l -0.01,9.2147 4.13296,-0.848 c 2.27314,-0.4664 6.29112,-1.1612 8.92885,-1.5439 l 4.79587,-0.6958 1.24541,1.2454 1.2454,1.2454 -1.66628,1.4743 c -0.91645,0.8109 -6.16627,4.3682 -11.66627,7.9052 l -10,6.4309 -16.46713,16.616 -16.46751,16.6167 -1.34537,0 -1.34538,0 0,1.935 0,1.9349 -3.4375,2.9886 c -1.89062,1.6437 -4.70561,3.3156 -6.25552,3.7152 l -2.81802,0.7267 -3.18366,-2.086 -3.18366,-2.086 -1.29116,1.2911 -1.29115,1.2912 2.86692,2.0081 2.86693,2.008 -1.19909,1.1991 c -0.6595,0.6594 -7.56019,4.3209 -15.33488,8.1365 l -14.13577,6.9376 -3.67673,0 -3.67671,0 0,1.25 0,1.25 -9.30122,0 -9.30124,0 -0.77254,-1.25 -0.77254,-1.25 -2.33956,0 -2.33955,0 -4.57662,-2.8125 c -2.51714,-1.5469 -7.75927,-6.1054 -11.64918,-10.13 l -7.07255,-7.3175 -2.32195,-4.5575 c -5.13081,-10.0707 -5.80305,-11.7466 -5.80305,-14.4667 l 0,-2.8317 -1.9979,-4.0049 -1.9979,-4.0049 -1.35496,-7.9102 -1.35496,-7.9102 2.23525,-5.8529 2.23525,-5.8529 -0.65612,-0.6561 -0.65611,-0.6561 -1.46707,2.7412 -1.46708,2.7413 -1.071,-1.0717 -1.07101,-1.0717 -1.4404,-11.875 -1.4404,-11.875 -1.20861,-2.2657 c -0.66475,-1.2461 -1.25758,-3.9872 -1.3174,-6.0914 l -0.10875,-3.8257 2.38209,-1.3685 2.38211,-1.3686 -3.60842,-0.665 -3.6084,-0.6651 -3.2666,-8.4079 -3.26658,-8.408 -3.90968,-5.4743 -3.90967,-5.4743 -9.84033,-4.2427 -9.84035,-4.2428 -13.125,0 -13.125,0 -7.5,3.5097 c -4.125,1.9304 -10.15385,5.2118 -13.39744,7.2921 l -5.89743,3.7824 7.95744,9.7762 c 15.74064,19.3385 26.31807,37.4175 40.96303,70.0146 4.78756,10.6563 12.39289,27.3871 16.90071,37.1797 l 8.19607,17.8047 7.4809,11.5703 7.48088,11.5703 8.48569,8.3378 8.48569,8.3377 9.58705,4.6112 9.58704,4.6112 8.96018,1.7161 8.96019,1.7162 16.70485,-0.5999 16.70485,-0.6 15.62106,-3.1629 z m -62.65692,-70.8319 c 2.13084,-4.1206 4.40914,-11.0105 3.64085,-11.0105 -0.952,0 -5.36685,8.3302 -6.12793,11.5625 -1.07761,4.5766 -0.0468,4.3479 2.48708,-0.552 z m 81.08029,-8.0736 c -2.66435,-1.9482 -3.43414,-1.5665 -2.3801,1.1803 l 0.75787,1.975 1.94693,-0.7472 1.94692,-0.7471 -2.27162,-1.661 z m -39.89034,-9.7717 c 2.0592,-4.9284 2.27809,-6.9152 0.76186,-6.9152 -1.38552,0 -3.95065,5.7195 -3.95065,8.8088 0,3.6499 1.16049,2.9608 3.18879,-1.8936 z m -18.65545,-5.9714 1.8685,-3.6133 -0.49743,-1.4777 -0.49742,-1.4778 -3.14735,6.5652 -3.14735,6.5653 1.77627,-1.4742 c 0.97695,-0.8108 2.6171,-3.1002 3.64478,-5.0875 z m -38.97299,-10.9857 4.62004,-8.7919 -0.48509,-1.4553 -0.48508,-1.4552 -3.72179,5.5596 c -5.73295,8.564 -8.1402,14.9347 -5.64327,14.9347 l 1.09516,0 4.62003,-8.7919 z m 27.0329,-0.1323 c 0.78716,-1.4709 1.9034,-4.3207 2.48053,-6.333 l 1.04932,-3.6588 -1.49853,0.4995 -1.49853,0.4995 -2.16593,5.8335 -2.16594,5.8335 1.18394,0 c 0.65116,0 1.82798,-1.2034 2.61514,-2.6742 z m 43.65675,-18.9508 c 0,-1.8012 -2.44222,-4.625 -4,-4.625 -1.51695,0 -1.19542,3.0546 0.5,4.75 1.96289,1.9629 3.5,1.908 3.5,-0.125 z m 208.75,-58.0743 c 0,-0.5221 -1.125,-1.6519 -2.5,-2.5106 l -2.5,-1.5613 0,1.0106 c 0,1.3022 2.70121,4.0106 4,4.0106 0.55,0 1,-0.4272 1,-0.9493 z m -69.96351,-8.3817 -1.56975,-1.8915 -1.29774,0.8021 -1.29772,0.802 2.28561,1.6713 c 2.81754,2.0602 4.00958,1.1825 1.8796,-1.3839 z m 26.21351,1.3591 c 0,-0.2596 -0.85662,-1.1829 -1.90361,-2.0518 l -1.90361,-1.5799 0.78735,2.0518 c 0.67236,1.7522 3.01987,2.9803 3.01987,1.5799 z m -28.125,-23.2781 c -0.4249,-0.6875 -1.44247,-1.2414 -2.26127,-1.2309 l -1.48873,0.019 1.875,1.2117 c 2.4014,1.5519 2.83413,1.5519 1.875,0 z m -29.21989,-21.58333 -1.55322,-1.54166 0.85347,2.24141 0.85349,2.24141 0.69974,-0.69975 0.69975,-0.69973 -1.55323,-1.54168 z m -325.15511,29.07933 -6.875,-3.6361 -15.67878,-5.0115 -15.67878,-5.01148 -2.86487,-3.0495 -2.86486,-3.04951 -1.21901,-5.4254 -1.219,-5.42539 0.79953,-6.25606 c 0.43975,-3.44083 1.93905,-11.31855 3.33178,-17.50605 l 2.53224,-11.25 1.70943,-1.79641 1.70942,-1.7964 2.00559,4.80006 c 2.39005,5.72019 4.29505,16.58079 4.30507,24.54373 l 0.007,5.75096 1.42701,4.24904 c 0.78485,2.33696 2.30298,5.26069 3.37362,6.49717 l 1.94662,2.24816 3.75309,-0.37316 3.75308,-0.37315 2.46027,-4.22844 2.46026,-4.22842 6.51964,-26.53422 6.51963,-26.53421 2.20934,-3.37186 2.20933,-3.37186 4.99072,-2.54608 4.99072,-2.54607 11.68209,-2.96341 11.68209,-2.9634 20.94874,-3.05638 c 11.5218,-1.681 24.32374,-3.43595 28.44874,-3.89988 l 7.5,-0.84351 5.01403,-2.19131 5.01403,-2.19132 4.11768,-4.11768 4.11767,-4.11768 9.07978,-13.92558 9.07979,-13.9256 4.97205,-3.93794 c 23.1837,-18.36184 72.67475,-40.06165 110.65603,-48.51817 l 9.19894,-2.04814 20,-0.65836 20,-0.65836 19.38513,2.60402 19.38513,2.60402 6.29447,1.86926 6.29447,1.86926 5.29068,4.52862 5.29068,4.52863 1.84222,3.56246 1.84222,3.56246 0,5.59116 0,5.59118 -3.14474,3.7373 -3.14473,3.73731 -24.04277,14.90419 c -34.77361,21.5563 -48.0392,29.09445 -68.41776,38.87832 l -18.125,8.70194 -21.25,7.51267 c -11.6875,4.13197 -42.90625,14.64833 -69.375,23.36969 l -48.125,15.85702 -5.46994,2.99668 -5.46995,2.99669 -2.31742,0 c -2.86519,0 -24.82891,8.68244 -35.17351,13.90437 -4.21065,2.12553 -12.733,7.00528 -18.93857,10.84389 l -11.28285,6.97928 -9.56278,9.13625 -9.56278,9.1362 -1.7361,-0.059 c -0.95486,-0.032 -4.82985,-1.6952 -8.6111,-3.695 z m 13.50026,-3.6223 3.91866,-4.8762 9.8398,-7.31125 c 5.41189,-4.02118 12.5652,-8.90698 15.89625,-10.85733 l 6.05646,-3.54607 -7.41821,-4.01019 c -4.08002,-2.2056 -8.54322,-4.62235 -9.91822,-5.37057 -1.375,-0.74822 -4.01543,-2.06675 -5.86761,-2.93007 -1.85219,-0.86331 -6.35219,-4.44505 -10,-7.95941 l -6.63239,-6.38975 -3.125,-6.54199 c -1.71875,-3.5981 -3.45263,-6.55073 -3.85307,-6.56142 -0.40044,-0.0112 -2.29982,6.87119 -4.22085,15.29306 -1.92102,8.42188 -4.53569,18.7199 -5.81037,22.88451 l -2.3176,7.572 -3.18323,2.9905 -3.18323,2.99049 -4.27865,0 -4.27865,0 -2.41724,-2.18757 -2.41725,-2.18758 -1.3681,-5.24992 c -0.75245,-2.88747 -1.90025,-10.98969 -2.55065,-18.00495 l -1.18255,-12.75503 -1.21811,-2.17664 -1.21811,-2.17663 -1.39604,4.93166 c -0.76782,2.71241 -2.31523,10.03575 -3.43868,16.27407 l -2.04264,11.34242 1.75001,5.49517 1.75001,5.49518 3.93147,2.63703 3.93147,2.63704 10.49676,2.82084 10.49676,2.8209 9.94677,4.7856 c 5.47072,2.6322 10.2745,4.8336 10.67506,4.8921 0.40057,0.058 2.4917,-2.088 4.64697,-4.77 z m 16.49974,-52.47064 c 0,-0.60331 -0.85734,-1.80848 -1.90521,-2.67812 l -1.9052,-1.58118 -0.77292,0.77291 -0.77292,0.77293 1.58118,1.9052 c 1.73776,2.09387 3.77507,2.53007 3.77507,0.80826 z m -16.25,-10.01931 c 0,-0.61395 -0.8151,-1.42905 -1.81134,-1.81134 l -1.81134,-0.69507 0.69508,1.81133 c 0.75871,1.97716 2.9276,2.4921 2.9276,0.69508 z m 145.49126,-68.36098 c 0.41732,-1.08747 0.74085,-3.75935 0.71899,-5.9375 l -0.0398,-3.96026 -1.83524,2.42641 -1.83525,2.42642 0,3.51108 0,3.51109 1.11627,0 c 0.61395,0 1.4577,-0.88975 1.875,-1.97724 z m 31.26993,-6.58861 0.65872,-1.06585 -1.73275,-2.36969 -1.73276,-2.36968 -0.84134,0.84133 -0.84132,0.84134 0.82336,2.5942 0.82338,2.5942 1.09198,0 c 0.6006,0 1.38843,-0.47964 1.75073,-1.06585 z m 268.86381,77.23986 -8.75,-4.88446 -9.375,-3.12226 -9.375,-3.12228 -36.875,-7.48668 -36.875,-7.48669 -19.45715,-5.59218 c -10.70144,-3.0757 -22.65456,-6.78848 -26.5625,-8.25063 l -7.10535,-2.65845 0,-2.17633 0,-2.17633 3.4375,-3.19724 3.4375,-3.19726 23.43563,-13.35141 c 12.8896,-7.34327 26.9521,-14.97925 31.25,-16.96885 l 7.81437,-3.61743 10.55378,-2.10487 10.55377,-2.10486 18.19623,0.72751 18.19622,0.72752 7.12256,1.80675 7.12257,1.80673 22.25243,19.84228 c 12.23884,10.91325 30.56818,27.08609 40.73184,35.93962 l 18.47941,16.09737 -0.44628,1.33885 -0.44629,1.33885 -4.90812,1.08006 -4.90812,1.08007 -16.875,-0.79707 c -9.28125,-0.43839 -19.125,-0.90784 -21.875,-1.04321 l -5,-0.24613 -0.32965,5.625 c -0.1813,3.09375 -0.6139,6.89063 -0.96131,8.4375 l -0.63166,2.8125 -1.53869,-0.0958 c -0.84628,-0.0527 -5.47619,-2.29379 -10.28869,-4.98024 z m -32.5,-64.92401 0.77254,-1.25 -4.13626,0.0191 -4.13628,0.0192 1.875,1.21171 c 2.42991,1.57033 4.65449,1.57033 5.625,0 z"
         style="fill:#b84444" />
      <path
         id="path67090"
         d="m -559.593,1221.4838 -8.96018,-1.7161 -9.58704,-4.6112 -9.58705,-4.6112 -8.48569,-8.3377 -8.48569,-8.3378 -7.48088,-11.5703 -7.4809,-11.5703 -8.19607,-17.8047 c -4.50782,-9.7926 -12.11315,-26.5234 -16.90071,-37.1797 -14.64496,-32.5971 -25.22239,-50.6761 -40.96303,-70.0146 l -7.95744,-9.7762 5.89743,-3.7824 c 3.24359,-2.0803 9.27244,-5.3617 13.39744,-7.2921 l 7.5,-3.5097 13.125,0 13.125,0 9.84033,4.2428 9.84032,4.2427 3.90968,5.4743 3.90967,5.4743 3.26659,8.408 3.2666,8.4079 3.6084,0.6651 3.60841,0.665 -2.3821,1.3686 -2.3821,1.3685 0.10875,3.8257 c 0.0599,2.1042 0.65265,4.8453 1.3174,6.0914 l 1.20861,2.2657 1.4404,11.875 1.4404,11.875 1.07102,1.0717 1.071,1.0717 1.46707,-2.7413 1.46708,-2.7412 0.65611,0.6561 0.65611,0.6561 -2.23525,5.8529 -2.23525,5.8529 1.35496,7.9102 1.35497,7.9102 1.9979,4.0049 1.9979,4.0049 0,2.8317 c 0,2.7201 0.67223,4.396 5.80305,14.4667 l 2.32195,4.5575 7.07255,7.3175 c 3.88991,4.0246 9.13203,8.5831 11.64917,10.13 l 4.57663,2.8125 2.33955,0 2.33956,0 0.77254,1.25 0.77253,1.25 9.30124,0 9.30123,0 0,-1.25 0,-1.25 3.67671,0 3.67672,0 14.13578,-6.9376 c 7.77469,-3.8156 14.67537,-7.4771 15.33487,-8.1365 l 1.19909,-1.1991 -2.86692,-2.008 -2.86693,-2.0081 1.29115,-1.2912 1.29116,-1.2911 3.18367,2.086 3.18366,2.086 2.81801,-0.7267 c 1.54991,-0.3996 4.3649,-2.0715 6.25553,-3.7152 l 3.4375,-2.9886 0,-1.9349 0,-1.935 1.34537,0 1.34538,0 16.46712,-16.616 16.46713,-16.616 10,-6.4309 c 5.5,-3.537 10.74982,-7.0944 11.66627,-7.9052 l 1.66628,-1.4743 -1.2454,-1.2454 -1.24542,-1.2455 -4.79586,0.6959 c -2.63774,0.3827 -6.65571,1.0774 -8.92885,1.5438 l -4.13296,0.848 0.01,-9.2147 c 0.006,-5.0681 0.0255,-10.8974 0.0439,-12.954 0.0325,-3.6441 1.14002,-7.2068 4.70943,-15.15 l 1.74772,-3.8893 3.37727,-1.5711 c 1.8575,-0.8641 5.02928,-2.0579 7.04842,-2.653 l 3.67118,-1.0818 5.07882,5.3817 c 2.79336,2.96 6.09223,7.1649 7.3308,9.3443 l 2.25195,3.9625 -4.75195,2.1486 c -2.61357,1.1817 -5.73634,2.9612 -6.93946,3.9542 l -2.1875,1.8057 0,4.1996 0,4.1997 4.0625,2.4769 4.0625,2.477 5.14451,0.01 5.14451,0 13.60549,-2.9801 13.60549,-2.9801 19.375,-0.2194 c 10.65625,-0.1206 26.3354,-0.7407 34.84255,-1.378 l 15.46756,-1.1587 8.51073,-4.106 8.51073,-4.106 -1.32602,1.5978 -1.32603,1.5978 5.1352,-0.6452 5.13522,-0.6453 8.46253,-3.2088 c 4.65439,-1.7649 11.67597,-4.2688 15.60349,-5.5643 8.81831,-2.9087 16.25156,-6.6388 18.40821,-9.2374 0.89757,-1.0815 2.30662,-1.9663 3.13122,-1.9663 0.82458,0 3.70883,-1.6719 6.40943,-3.7153 2.7006,-2.0433 5.39003,-3.7308 5.97652,-3.75 0.58648,-0.019 3.95295,2.5606 7.48102,5.7326 3.52808,3.1721 9.11203,7.3079 12.40878,9.1907 l 5.9941,3.4234 -1.60012,1.2547 c -4.11023,3.2231 -24.13088,13.1858 -35.80517,17.8176 -16.24568,6.4454 -30.05854,10.4659 -48.0106,13.9744 l -14.03435,2.7428 -24.375,0.102 -24.375,0.102 -0.38009,-6.6277 -0.38009,-6.6276 -1.87462,-0.7194 -1.87464,-0.7194 -4.62029,1.9767 c -2.54115,1.0872 -8.01787,2.8046 -12.1705,3.8165 l -7.55023,1.8398 -8.69977,4.1555 -8.69936,4.155 -2.63735,5.222 -2.63736,5.2219 -1.47666,11.5145 -1.47668,11.5145 -3.70807,9.6153 -3.70807,9.6154 -4.6779,7.6962 c -2.57285,4.2329 -7.6944,11.1121 -11.38122,15.287 l -6.70331,7.5907 -8.92169,6.6798 c -11.31253,8.47 -22.1292,14.3643 -36.59578,19.9423 l -11.42407,4.4049 -15.62108,3.1629 -15.62106,3.1629 -16.70485,0.6 -16.70485,0.5999 -8.96019,-1.7162 z m -7.15305,-72.9265 c 0.76108,-3.2323 5.17593,-11.5625 6.12793,-11.5625 0.76829,0 -1.51001,6.8899 -3.64085,11.0105 -2.5338,4.8999 -3.56469,5.1286 -2.48708,0.552 z m 81.18727,-7.4453 c -1.05404,-2.7468 -0.28425,-3.1285 2.3801,-1.1803 l 2.27162,1.661 -1.94692,0.7471 -1.94693,0.7472 -0.75787,-1.975 z m -40.69903,-9.0584 c 0,-3.0893 2.56513,-8.8088 3.95065,-8.8088 1.51623,0 1.29734,1.9868 -0.76186,6.9152 -2.0283,4.8544 -3.18879,5.5435 -3.18879,1.8936 z m -17.74036,-7.8686 3.14735,-6.5652 0.49742,1.4778 0.49743,1.4777 -1.8685,3.6133 c -1.02768,1.9873 -2.66783,4.2767 -3.64478,5.0875 l -1.77627,1.4742 3.14735,-6.5653 z m -43.50964,-3.3814 c 0,-2.0925 2.90424,-8.0159 6.73843,-13.7435 l 3.72179,-5.5596 0.48508,1.4552 0.48509,1.4553 -4.62004,8.7919 -4.62003,8.7919 -1.09516,0 c -0.60233,0 -1.09516,-0.536 -1.09516,-1.1912 z m 32.21011,-10.8923 2.16593,-5.8335 1.49853,-0.4995 1.49853,-0.4995 -1.04932,3.6588 c -1.45133,5.0604 -3.68413,9.0072 -5.09567,9.0072 l -1.18393,0 2.16593,-5.8335 z m 41.78989,-15.6665 c -1.69542,-1.6954 -2.01695,-4.75 -0.5,-4.75 1.55778,0 4,2.8238 4,4.625 0,2.033 -1.53711,2.0879 -3.5,0.125 z m 208.75,-58.75 c -0.825,-0.825 -1.5,-1.9548 -1.5,-2.5106 l 0,-1.0106 2.5,1.5613 c 2.52553,1.5772 3.34175,3.4599 1.5,3.4599 -0.55,0 -1.675,-0.675 -2.5,-1.5 z m -68.34311,-6.4471 -2.28561,-1.6713 1.29772,-0.802 1.29774,-0.8021 1.56975,1.8915 c 2.12999,2.5664 0.93794,3.4441 -1.8796,1.3839 z m 25.07324,-1.6047 -0.78735,-2.0518 1.90361,1.5799 c 2.16905,1.8001 2.3948,2.5237 0.78735,2.5237 -0.61395,0 -1.47058,-0.9233 -1.90361,-2.0518 z m -381.3019,-17.9466 -9.94677,-4.7856 -10.49676,-2.8209 -10.49676,-2.82084 -3.93147,-2.63704 -3.93147,-2.63704 -1.75001,-5.49517 -1.75001,-5.49518 2.04264,-11.34241 c 1.12345,-6.23832 2.67086,-13.56166 3.43868,-16.27407 l 1.39604,-4.93166 1.21811,2.17663 1.21811,2.17664 1.18255,12.75502 c 0.6504,7.01527 1.7982,15.11749 2.55065,18.00495 l 1.3681,5.24993 2.41725,2.18757 2.41724,2.18758 4.27865,0 4.27865,0 3.18323,-2.99049 3.18323,-2.9905 2.3176,-7.572 c 1.27468,-4.16461 3.88935,-14.46264 5.81037,-22.88451 1.92103,-8.42188 3.82041,-15.30375 4.22085,-15.29306 0.40044,0.0113 2.13432,2.96332 3.85307,6.56142 l 3.125,6.54199 6.63239,6.38975 c 3.64781,3.51436 8.14781,7.0961 10,7.95941 1.85218,0.86331 4.49261,2.18185 5.86761,2.93006 1.375,0.74823 5.8382,3.16498 9.91822,5.37058 l 7.41821,4.01019 -6.05646,3.54607 c -3.33105,1.95035 -10.48436,6.83615 -15.89625,10.85733 l -9.8398,7.31125 -3.91866,4.8762 c -2.15527,2.682 -4.2464,4.8284 -4.64697,4.77 -0.40056,-0.058 -5.20434,-2.2599 -10.67506,-4.8921 z m 354.32177,-3.7516 -1.875,-1.2117 1.48873,-0.019 c 0.8188,-0.01 1.83637,0.5433 2.26127,1.2308 0.95913,1.5519 0.5264,1.5519 -1.875,0 z m -28.04464,-20.88358 -0.85347,-2.24141 1.55322,1.54166 1.55323,1.54168 -0.69975,0.69973 -0.69974,0.69975 -0.85349,-2.24141 z m -298.23043,-28.52162 -1.58118,-1.9052 0.77292,-0.77293 0.77292,-0.77291 1.9052,1.58118 c 2.09388,1.73776 2.53008,3.77507 0.80827,3.77507 -0.60332,0 -1.80848,-0.85734 -2.67813,-1.90521 z m -15.40253,-9.90613 -0.69508,-1.81133 1.81134,0.69507 c 0.99624,0.38229 1.81134,1.19739 1.81134,1.81134 0,1.79702 -2.16889,1.28208 -2.9276,-0.69508 z m 410.4276,-61.93866 -1.875,-1.21171 4.13628,-0.0191 4.13626,-0.0192 -0.77254,1.25 c -0.97051,1.57033 -3.19509,1.57033 -5.625,0 z m -265,-7.26109 0,-3.51109 1.83525,-2.42641 1.83524,-2.42641 0.0398,3.96026 c 0.0467,4.64832 -1.02388,7.91474 -2.59398,7.91474 l -1.11626,0 0,-3.51109 z m 30.5951,-6.58311 -0.82336,-2.5942 0.84132,-0.84134 0.84134,-0.84134 1.73276,2.36969 1.73275,2.36969 -0.65872,1.06585 c -0.3623,0.58621 -1.15013,1.06585 -1.75073,1.06585 l -1.09198,0 -0.82338,-2.5942 z"
         style="fill:#b43a3a" />
    </g>
  </g>
</svg>
