<?xml version="1.0" encoding="UTF-8" standalone="no"?>
<svg
   xmlns:dc="http://purl.org/dc/elements/1.1/"
   xmlns:cc="http://creativecommons.org/ns#"
   xmlns:rdf="http://www.w3.org/1999/02/22-rdf-syntax-ns#"
   xmlns:svg="http://www.w3.org/2000/svg"
   xmlns="http://www.w3.org/2000/svg"
   version="1.1"
   id="svg2"
   viewBox="0 0 50.000001 49.999997"
   height="14.111111mm"
   width="14.111112mm">
  <defs
     id="defs4" />
  <metadata
     id="metadata7">
    <rdf:RDF>
      <cc:Work
         rdf:about="">
        <dc:format>image/svg+xml</dc:format>
        <dc:type
           rdf:resource="http://purl.org/dc/dcmitype/StillImage" />
        <dc:title></dc:title>
      </cc:Work>
    </rdf:RDF>
  </metadata>
  <g
     transform="translate(1.9669533e-6,-1002.3622)"
     id="layer1">
    <path
       d="m 22.854699,1023.1941 -15.3932497,-4.2447 -15.3932501,-4.2447 11.3726309,-11.2086 11.3726309,-11.20862 4.020619,15.45332 z"
       id="path4138"
       style="fill:#ff0000;fill-opacity:0;stroke-width:5;stroke-miterlimit:4;stroke-dasharray:none" />
    <path
       transform="matrix(0.96879417,0,0,0.99066006,0.78014365,9.595501)"
       d="m 28.366215,1025.0741 -11.575134,5.987 -11.5751353,5.987 0.6026776,-13.0179 0.6026796,-13.0178 10.9724561,7.0308 z"
       id="path4142"
       style="fill:#ff0000;fill-opacity:0;stroke-width:5;stroke-miterlimit:4;stroke-dasharray:none" />
    <path
       transform="matrix(0.96879417,0,0,0.99066006,0.78014365,9.595501)"
       d="m 2.3390493,1030.7112 11.2645627,-10.2616 11.264564,-10.2615 3.254465,14.8862 3.254465,14.8861 -14.519028,-4.6246 z"
       id="path4144"
       style="fill:#ff0000;fill-opacity:0;stroke-width:5;stroke-miterlimit:4;stroke-dasharray:none" />
    <path
       id="path66863"
       d="m 22.749927,1052.1523 -0.553253,-0.2053 -1.603519,-2.6992 -1.603518,-2.6994 -1.367223,-0.4873 -1.367221,-0.4874 -1.163585,0.5422 -1.163585,0.5421 -0.612845,-0.857 c -0.337066,-0.4715 -0.671095,-1.0357 -0.742287,-1.2541 l -0.12944,-0.3969 -2.5259904,0.5418 -2.5259894,0.5419 -0.7545531,-0.2962 -0.7545521,-0.296 0.00252,-1.5183 c 0.00136,-0.8351 0.2146218,-2.2992 0.4738537,-3.2538 l 0.4713203,-1.7356 -1.1945823,-3.1274 -1.1945833,-3.1275 -2.2204491,-1.2676 -2.2204472669533,-1.2677 0,-0.9257 0,-0.9256 L 2.2563139,1026.22 l 2.2563168,-1.2724 0.2935495,-1.6194 c 0.1614524,-0.8907 0.6945973,-2.4348 1.1847684,-3.4312 l 0.8912209,-1.8118 -0.4999104,-2.5454 c -0.2749496,-1.3999 -0.4999075,-3.0312 -0.4999075,-3.6251 l 0,-1.0795 1.0743317,0 c 0.5908821,0 1.9400113,0.3124 2.9980663,0.6941 1.0580544,0.3818 1.9778694,0.694 2.0440354,0.694 0.06617,0 0.253321,-0.5419 0.415902,-1.2043 l 0.295603,-1.2044 1.481321,0.2843 1.481323,0.2841 1.462456,-0.2991 1.462455,-0.2992 1.594247,-3.4353 1.594249,-3.4353 0.70319,-0.276 0.703191,-0.2759 0.837565,1.1132 c 0.460661,0.6124 1.400461,2.2012 2.088443,3.5305 l 1.250877,2.4172 1.360288,0.3055 c 0.748159,0.168 2.2023,0.7238 3.231426,1.2351 l 1.871135,0.9295 2.497121,-1.0583 2.49712,-1.0583 0.722398,0.2834 0.722397,0.2836 0,0.9171 c 0,0.5043 -0.219633,1.9644 -0.488074,3.2442 l -0.488073,2.3273 1.279928,2.7222 1.279929,2.7222 3.582127,1.7983 3.582131,1.7981 0.490267,0.8565 0.490271,0.8564 -1.241448,0.9669 c -0.6828,0.5317 -2.303972,1.4261 -3.602614,1.9874 l -2.361164,1.0206 -1.263266,3.1712 -1.263268,3.1712 0.292794,4.0487 0.292794,4.0487 -0.856778,0 c -0.471227,0 -1.966541,-0.5328 -3.322918,-1.1784 l -2.466139,-1.1738 -2.567817,1.1783 c -1.412301,0.6482 -2.790625,1.1784 -3.062943,1.1784 l -0.495126,0 -1.531461,2.4292 c -0.842305,1.3361 -1.917566,2.7664 -2.389472,3.1786 l -0.858006,0.7493 -0.553253,-0.2053 z"
       style="fill:#000000" />
    <path
       id="path66861"
       d="m 24.588864,1048.8924 c 0.588937,-0.9543 1.216072,-2.2035 1.393635,-2.7762 l 0.322842,-1.0411 -2.97167,0 c -1.634417,0 -2.971668,0.099 -2.971668,0.2211 0,0.5859 2.495451,5.3314 2.803516,5.3314 0.193904,0 0.834409,-0.7809 1.423345,-1.7352 z"
       style="fill:#e1e1e1;fill-opacity:1" />
    <path
       id="path66859"
       d="m 16.644891,1044.2936 c 0.675633,-0.4299 2.093809,-1.485 3.151501,-2.3445 l 1.923077,-1.5629 0,-1.3876 0,-1.3874 -0.465903,-0.8903 -0.465903,-0.8902 -1.32158,-0.6989 -1.321583,-0.6988 -1.266814,0.011 c -0.696747,0 -1.52506,0.1748 -1.840693,0.3797 l -0.573878,0.3724 -0.444222,1.5839 -0.44422,1.584 0.0062,2.3164 c 0.0034,1.2741 0.128958,2.7852 0.27902,3.3577 l 0.27284,1.0411 0.641879,0 c 0.353032,0 1.194669,-0.3518 1.870302,-0.7816 z"
       style="fill:#e1e1e1;fill-opacity:1" />
    <path
       id="path66857"
       d="m 10.520374,1043.1372 c 0.684389,-0.2683 1.244344,-0.6088 1.244344,-0.7568 0,-0.4043 -2.8408876,-3.3203 -3.2349156,-3.3203 l -0.3424561,0 -0.4712341,1.7351 c -0.2591786,0.9544 -0.4723695,2.1135 -0.4737578,2.576 l -0.00252,0.8409 1.0180999,-0.2936 c 0.5599543,-0.1614 1.5780543,-0.5131 2.2624437,-0.7813 z"
       style="fill:#e1e1e1;fill-opacity:1" />
    <path
       id="path66855"
       d="m 39.207665,1041.6835 c -0.155905,-1.3565 -0.649227,-3.6989 -1.096272,-5.2053 l -0.812809,-2.7392 -1.508373,-0.1492 -1.508371,-0.149 -1.321831,0.5598 -1.32183,0.56 -0.660713,0.9645 -0.660712,0.9645 0,1.4851 0,1.485 1.41026,1.0269 c 0.775645,0.5647 2.455509,1.6162 3.733032,2.3366 l 2.322773,1.3098 0.854152,0.011 0.854156,0.011 -0.283462,-2.4664 z"
       style="fill:#e1e1e1;fill-opacity:1" />
    <path
       id="path66853"
       d="m 5.5508069,1028.765 c -0.1349938,-1.0816 -0.3027017,-2.0364 -0.3726835,-2.1217 -0.069986,-0.085 -0.856448,0.1986 -1.7476999,0.631 l -1.6204574,0.7863 0,0.4168 c 0,0.4907 2.7054168,2.2497 3.4637308,2.2523 l 0.522554,0 -0.245444,-1.9665 z"
       style="fill:#e1e1e1;fill-opacity:1" />
    <path
       id="path66851"
       d="m 45.135759,1028.8938 c 1.55543,-0.7439 2.828054,-1.4813 2.828054,-1.6384 0,-0.3285 -7.372502,-3.9272 -8.045575,-3.9272 l -0.44616,0 -0.272841,1.0411 c -0.362258,1.3822 -0.358651,4.7026 0.0062,5.6748 l 0.291362,0.7764 1.40547,-0.287 c 0.773006,-0.1578 2.678092,-0.8957 4.233522,-1.6397 z"
       style="fill:#e1e1e1;fill-opacity:1" />
    <path
       id="path66849"
       d="m 8.2793352,1023.5096 0.7242221,-1.4322 1.6068247,-1.4427 1.606824,-1.4426 0,-1.7142 0,-1.7142 -1.156993,1.1114 c -0.636346,0.6114 -1.7566705,2.1833 -2.4896098,3.4932 l -1.3326161,2.3818 -0.2255314,2.2555 -0.2255314,2.2556 0.3840949,-1.1598 c 0.2112514,-0.6378 0.7099944,-1.8042 1.108316,-2.5918 z"
       style="fill:#7b7b7b;fill-opacity:1" />
    <path
       id="path66847"
       d="m 20.123667,1021.1322 1.143313,-1.1691 0,-1.7848 0,-1.7848 -1.923077,-1.4333 c -1.057692,-0.7884 -2.689554,-1.8365 -3.626361,-2.3292 l -1.703284,-0.8959 -0.490791,1.2852 -0.490793,1.2852 0.241186,3.0808 0.241184,3.0806 0.577686,0.9459 0.577687,0.9459 1.375204,0.1412 c 2.006001,0.206 2.79924,-0.06 4.078046,-1.3677 z"
       style="fill:#e1e1e1;fill-opacity:1" />
    <path
       id="path66845"
       d="m 36.936018,1021.1748 c 0.379904,-0.9298 0.984037,-3.258 1.342519,-5.174 l 0.651784,-3.4833 -0.405626,-0.4149 -0.405627,-0.4147 -2.430568,1.2551 c -1.336813,0.6905 -3.295953,1.862 -4.353646,2.6035 l -1.923078,1.3481 0,1.1649 c 0,0.6408 0.216617,1.5788 0.481368,2.0848 l 0.481367,0.9197 1.441711,0.8989 1.441709,0.8989 1.493678,0 1.493676,0 0.690733,-1.6903 z"
       style="fill:#e1e1e1;fill-opacity:1" />
    <path
       id="path66843"
       d="m 10.17041,1015.9358 1.756775,-1.8397 -1.65041,-0.7051 c -0.9077265,-0.3878 -1.9850421,-0.7052 -2.394035,-0.7052 l -0.7436251,0 0.3007282,1.7352 c 0.3286305,1.896 0.7068216,3.3545 0.8698706,3.3545 0.057149,0 0.8944693,-0.8278 1.8606963,-1.8397 z"
       style="fill:#e1e1e1;fill-opacity:1" />
    <path
       id="path66841"
       d="m 31.002754,1013.6232 c -0.149813,-0.2478 -1.318696,-0.7683 -2.59752,-1.1567 l -2.325132,-0.706 -2.745928,0.011 c -1.51026,0 -3.208364,0.133 -3.773563,0.288 l -1.027636,0.2814 0.50305,0.6199 0.503049,0.6197 3.465763,-0.2652 3.465763,-0.2654 1.58371,0.4727 c 0.871041,0.26 1.952064,0.4914 2.402271,0.5144 l 0.818559,0.042 -0.272386,-0.4506 z"
       style="fill:#767876;fill-opacity:1" />
    <path
       id="path66837"
       d="m 25.901102,1010.2231 0.335477,-0.082 -1.494938,-2.5448 -1.494939,-2.545 -0.422875,0.06 -0.422876,0.059 -1.226405,2.4858 c -0.674523,1.367 -1.235096,2.6031 -1.245719,2.7465 l -0.01932,0.2609 2.828054,-0.1788 c 1.55543,-0.098 2.979019,-0.2157 3.163533,-0.2608 z"
       style="fill:#e1e1e1;fill-opacity:1" />
    <path
       id="path66777"
       d=""
       style="fill:#000000" />
    <path
       id="path66775"
       d=""
       style="fill:#000000" />
    <path
       id="path66773"
       d=""
       style="fill:#000000" />
  </g>
</svg>
