<?xml version="1.0" encoding="UTF-8" standalone="no"?>
<svg
   xmlns:dc="http://purl.org/dc/elements/1.1/"
   xmlns:cc="http://creativecommons.org/ns#"
   xmlns:rdf="http://www.w3.org/1999/02/22-rdf-syntax-ns#"
   xmlns:svg="http://www.w3.org/2000/svg"
   xmlns="http://www.w3.org/2000/svg"
   version="1.1"
   id="svg2"
   viewBox="0 0 50.000004 65.931037"
   height="18.607204mm"
   width="14.111113mm">
  <defs
     id="defs4" />
  <metadata
     id="metadata7">
    <rdf:RDF>
      <cc:Work
         rdf:about="">
        <dc:format>image/svg+xml</dc:format>
        <dc:type
           rdf:resource="http://purl.org/dc/dcmitype/StillImage" />
        <dc:title></dc:title>
      </cc:Work>
    </rdf:RDF>
  </metadata>
  <g
     transform="translate(1.966953e-6,-986.43116)"
     id="layer1">
    <path
       id="path66777"
       d=""
       style="fill:#000000" />
    <path
       id="path66775"
       d=""
       style="fill:#000000" />
    <path
       id="path66773"
       d=""
       style="fill:#000000" />
    <path
       id="path66989"
       d="m 23.101288,1052.2553 0,-0.1054 -0.205457,0 c -0.113001,0 -0.613183,-0.1476 -1.111516,-0.3279 l -0.906059,-0.3278 -0.78383,-0.5117 -0.783831,-0.5117 -0.83371,-0.7965 -0.833709,-0.7966 -0.363167,0.4494 c -0.19974,0.2471 -0.593014,0.7743 -0.873941,1.1715 l -0.510775,0.7222 -0.07386,-0.142 c -0.04062,-0.078 -0.253251,-0.7947 -0.472512,-1.5924 l -0.398654,-1.4505 -0.152523,0 c -0.08389,0 -0.435996,0.1662 -0.782463,0.3692 -0.346468,0.2031 -0.651132,0.3692 -0.677033,0.3692 -0.119094,0 -0.01444,-0.6715 0.38692,-2.4828 l 0.434011,-1.9586 -0.0609,-0.061 -0.0609,-0.061 -0.756764,0.2805 -0.756765,0.2805 -0.05725,-0.057 -0.05725,-0.057 0.18542,-0.7865 0.185421,-0.7865 -0.0672,-0.1087 -0.0672,-0.1087 -0.521201,0 -0.5212,0 0,-0.091 c 0,-0.05 0.166139,-0.4502 0.369198,-0.8897 0.203059,-0.4395 0.369198,-0.8672 0.369198,-0.9504 l 0,-0.1513 -0.395569,-0.065 c -0.217564,-0.036 -0.54596,-0.066 -0.729769,-0.067 -0.183811,-6e-4 -0.403457,-0.028 -0.488104,-0.06 l -0.153904,-0.059 0.424082,-1.1178 0.424082,-1.1177 -0.120578,-0.1931 -0.120577,-0.1931 0,-1.3271 0,-1.3271 -0.221932,0.07 c -0.407695,0.1294 -1.833724,0.455 -1.863301,0.4254 -0.01605,-0.016 0.137638,-0.4663 0.341533,-1.0006 l 0.370718,-0.9715 -0.157391,-0.3043 -0.157391,-0.3044 0.0011,-0.2953 c 6.33e-4,-0.1625 0.07183,-0.5284 0.158228,-0.8132 0.0864,-0.2848 0.157087,-0.5539 0.157087,-0.598 l 0,-0.08 -0.553798,-0.1809 c -0.304588,-0.1 -0.567867,-0.1926 -0.585064,-0.2068 -0.0172,-0.014 0.206525,-0.6345 0.49716,-1.3785 0.290634,-0.744 0.50811,-1.3731 0.483279,-1.3979 -0.02483,-0.025 -0.456274,0.058 -0.958762,0.184 -0.502488,0.126 -0.93377,0.209 -0.958404,0.1843 -0.02463,-0.025 0.08462,-0.477 0.242783,-1.0054 l 0.287572,-0.9607 -0.0637,-0.064 -0.0637,-0.064 -1.18167,0.594 c -0.649918,0.3267 -1.198557,0.5771 -1.219196,0.5565 -0.02064,-0.021 0.05676,-0.3778 0.171996,-0.7936 0.115238,-0.4159 0.209523,-0.8097 0.209523,-0.8752 l 0,-0.1192 -0.237341,0.068 c -0.130538,0.037 -0.36788,0.096 -0.527426,0.131 l -0.290085,0.063 0.0037,-0.4088 c 0.002,-0.2248 0.06787,-0.7647 0.146327,-1.1999 l 0.142647,-0.7911 0.683038,-1.4768 c 0.375672,-0.8122 0.6726,-1.4898 0.659842,-1.5057 -0.01276,-0.016 -0.43528,0.067 -0.938937,0.1846 -0.503656,0.1174 -0.943024,0.2135 -0.976373,0.2135 l -0.06064,0 0.07512,-0.5009 c 0.102322,-0.6823 0.381011,-1.3835 0.891419,-2.2426 0.2358,-0.3969 0.428726,-0.77 0.428726,-0.8292 l 0,-0.1075 -0.643597,-0.2888 -0.643597,-0.2888 0.05494,-0.3385 c 0.03021,-0.1862 0.226118,-0.7091 0.43534,-1.1619 l 0.380405,-0.8233 -0.22011,-0.2167 -0.220109,-0.2166 -0.220628,0.2637 c -0.321924,0.3848 -1.069334,2.012 -1.447097,3.1505 l -0.327827,0.988 -0.253822,1.2799 c -0.388862,1.9609 -0.812419,4.7628 -0.875173,5.7895 l -0.05642,0.9229 -0.08632,0 -0.08632,0 -0.335255,-1.0812 c -0.464216,-1.4971 -1.22125097,-4.5425 -1.31143797,-5.2756 l -0.07479,-0.608 -0.09316,-0.058 -0.093159996953,-0.058 0,-1.9453 0,-1.9452 0.082899996953,0 0.0829,0 0.128552,-1.345 c 0.162117,-1.6961 0.566215,-4.3049 1.02529097,-6.6192 l 0.355723,-1.7932 0.380048,-1.3186 c 1.210299,-4.1991 3.152719,-7.64181 5.886406,-10.43302 l 0.971681,-0.99214 1.00211,-0.80188 c 1.423777,-1.13931 2.50923,-1.88493 3.902953,-2.68102 l 1.213081,-0.69291 1.223978,-0.52495 c 1.980589,-0.84946 4.264346,-1.48863 5.922646,-1.65762 l 0.712025,-0.0726 0,-0.0909 0,-0.0909 2.267933,0 2.267932,0 0,0.10549 0,0.10548 0.35075,0 c 0.522191,0 2.499914,0.37374 3.896307,0.73631 1.634748,0.42446 3.044888,0.94008 4.455475,1.62917 l 1.160338,0.56684 0.949367,0.62435 c 1.296486,0.85263 2.617034,1.98087 4.065159,3.47315 l 1.217058,1.25418 0.776796,1.0004 c 0.427239,0.55023 1.05932,1.42763 1.404625,1.94978 l 0.627828,0.94936 0.673952,1.37133 0.673953,1.3713 0.465389,1.424 0.465391,1.4241 0.277327,1.2416 c 0.390236,1.747 0.791962,4.1835 0.869212,5.2718 l 0.06554,0.9233 0.08969,0 0.08969,0 0,3.5338 0,3.5337 -0.105486,0 -0.105485,0 0,0.4682 c 0,0.6168 -0.41693,3.8665 -0.519602,4.0499 l -0.08005,0.1431 -0.28965,-1.0384 c -0.159307,-0.5711 -0.549097,-2.059 -0.866199,-3.3063 -0.317103,-1.2474 -0.722408,-2.7189 -0.900678,-3.2701 l -0.324128,-1.0021 -0.463622,-0.9068 -0.463622,-0.9067 -0.245436,-0.2306 -0.245434,-0.2306 -0.08043,1.1901 c -0.106964,1.5827 -0.106951,1.5784 -0.0078,2.6465 l 0.08624,0.9289 -0.224646,0.1573 -0.224645,0.1574 0.06402,1.0762 0.06402,1.0761 -0.179451,0.6105 -0.179451,0.6105 0.07333,1.1314 0.07333,1.1315 -0.333144,1.6863 c -0.183229,0.9275 -0.407278,1.9156 -0.497888,2.1958 l -0.164745,0.5094 -0.490638,-0.068 -0.490638,-0.067 -0.134125,0.3492 -0.134126,0.3492 -0.173266,1.5534 -0.173266,1.5534 -0.245571,-0.062 -0.245572,-0.062 0,0.061 c 0,0.077 0.302446,2.234 0.368043,2.6254 l 0.04862,0.2901 -0.106084,0 c -0.05835,0 -0.441156,-0.1899 -0.85069,-0.422 -0.409532,-0.2321 -0.764089,-0.4219 -0.787903,-0.4219 -0.101002,0 -0.02895,0.4306 0.167672,1.0021 0.116034,0.3372 0.210971,0.6585 0.210971,0.7139 l 0,0.1007 -0.369199,-0.069 -0.369198,-0.069 4.22e-4,0.084 c 2.11e-4,0.046 0.120232,0.6957 0.266684,1.4434 l 0.266275,1.3596 -0.05701,0.057 -0.05701,0.057 -0.288787,-0.2135 c -0.370491,-0.2739 -0.981738,-0.5905 -1.035766,-0.5365 -0.02295,0.023 0.12387,0.6169 0.326259,1.3199 0.202373,0.703 0.367964,1.3341 0.367964,1.4024 l 0,0.1242 -0.237342,-0.066 c -0.130538,-0.037 -0.439082,-0.096 -0.685654,-0.1322 l -0.448312,-0.066 0,0.3308 0.15625,0.7253 -0.253924,-0.1132 c -0.05299,-0.024 -0.113297,-0.3223 -0.113297,-0.3713 0.113297,0.3713 -0.03617,0.291 -0.03617,0.291 l 0.405368,0.1916 0.183346,0.2068 0.183347,0.2069 0.06539,0.3269 0.06539,0.3269 -0.644304,-0.058 -0.644303,-0.058 0,0.1168 c 0,0.064 0.213608,0.4471 0.474684,0.8507 0.261076,0.4036 0.474683,0.7899 0.474683,0.8586 l 0,0.1248 -0.237341,-0.059 c -0.525181,-0.1317 -2.231302,-0.378 -2.280141,-0.3291 -0.02873,0.029 0.119232,0.5883 0.3288,1.2435 l 0.381032,1.1914 0.185419,0.9672 0.18542,0.9673 -0.06189,0.062 -0.06189,0.062 -0.933834,-0.5837 -0.933835,-0.5838 -0.03344,0.1516 c -0.01839,0.083 0.04094,0.7604 0.131857,1.5043 0.09091,0.744 0.165298,1.4576 0.165298,1.5857 l 0,0.2331 -0.100968,0 c -0.05553,0 -0.581802,-0.3622 -1.169487,-0.8049 l -1.068519,-0.8049 -0.280935,0.2236 c -0.675588,0.5375 -2.534284,1.7458 -3.206066,2.0841 -0.403188,0.2031 -1.221364,0.5326 -1.818171,0.7323 l -1.085105,0.3631 -0.276724,0 -0.276725,0 0,0.1054 0,0.1055 -1.635021,0 -1.635021,0 0,-0.1055 z"
       style="fill:#000000;fill-opacity:1" />
    <path
       d="m 38.239902,1040.8569 -0.421941,-0.1861 -1.400869,-0.2569 -1.378771,-0.3231 -2.300034,0.2574 -2.300034,0.1913 -0.566975,-0.2214 -0.544878,-0.2876 -0.03867,-0.4241 0.03867,-0.4241 0.181938,-0.1368 0.226133,-0.082 0.297019,0 c 0.163361,5e-4 1.069531,-0.1276 2.013711,-0.2848 l 1.716693,-0.2857 0.973181,0.1237 0.973181,0.1237 0.6586,0.2232 0.658599,0.2233 0.633595,0.6915 c 0.348477,0.3803 0.633594,0.7316 0.633594,0.7816 0,0.049 0,0 0.113297,0.3713 -0.166039,-0.075 0,0 -0.166039,-0.075 z m -2.015576,-48.37765 0.168101,-0.49335 0,-0.51203 0,-0.51202 -0.143885,-0.34437 -0.143884,-0.34436 -0.328919,-0.27677 -0.328917,-0.27676 -0.86528,-0.33369 c -1.102944,-0.42534 -2.761221,-0.86196 -4.834685,-1.27296 l -1.635021,-0.32409 -1.951476,-0.0942 -1.951477,-0.0942 -1.21308,0.0988 c -1.951627,0.15896 -4.563218,0.72452 -6.378126,1.38123 l -0.900889,0.32598 -0.210334,0.2674 -0.210333,0.26739 -0.225559,0.75102 -0.22556,0.75101 -0.0527,0.71202 -0.0527,0.71203 0.05336,0 c 0.02935,0 0.546011,-0.23304 1.14814,-0.51787 1.429269,-0.67609 2.908165,-1.21891 4.355355,-1.5986 l 1.168077,-0.30646 1.192773,-0.17261 1.192773,-0.17262 1.919906,0.0556 1.919906,0.0556 1.054853,0.22829 1.054852,0.22829 1.371521,0.45809 1.371521,0.4581 1.687551,0.73547 c 0.928153,0.40451 1.718709,0.71712 1.756791,0.69468 0.03808,-0.0224 0.144885,-0.2628 0.237342,-0.53414 z m -17.469271,5.25289 0.757476,-0.44239 1.080436,-0.42828 c 0.59424,-0.23555 1.271172,-0.52451 1.504293,-0.64213 l 0.423859,-0.21386 0.536147,-0.50349 0.536147,-0.50348 0.518705,-0.26267 c 0.285288,-0.14447 0.776531,-0.33917 1.091649,-0.43267 l 0.572943,-0.16999 0.541877,0 0.541878,0 0.572943,0.17009 c 1.282388,0.3807 2.410443,1.09838 3.938153,2.50548 0.527826,0.48616 1.108617,1.0084 1.290647,1.16053 0.376426,0.31461 1.469252,0.91074 1.669563,0.91074 l 0.133111,0 0.266211,-0.60654 c 0.519607,-1.18389 1.128944,-3.31552 1.132349,-3.96129 l 0.0016,-0.29567 -1.133966,-0.53411 c -2.446978,-1.15254 -4.421261,-1.8576 -6.449562,-2.30327 l -0.9907,-0.21768 -1.092633,-0.0853 -1.092633,-0.0853 -1.09596,0.0855 c -2.590878,0.2022 -5.129313,0.98165 -7.745371,2.37827 l -1.088167,0.58094 -0.05071,0.13216 -0.05071,0.13216 0.334455,1.04508 c 0.391411,1.22306 1.082039,2.8786 1.440283,3.45259 l 0.251706,0.4033 0.448277,-0.41321 0.448276,-0.41321 0.757477,-0.44239 z m 26.367212,9.57976 0.322503,-0.1124 0.05654,-0.2304 c 0.0311,-0.1268 0.0885,-0.4756 0.127575,-0.7752 l 0.07104,-0.5448 -0.123547,-0.7211 -0.123545,-0.721 -0.36767,-0.7285 c -0.499676,-0.9902 -1.302689,-2.199 -2.424143,-3.64912 l -0.938125,-1.21308 -1.585833,-1.58227 -1.585834,-1.58228 -0.830166,-0.6659 -0.830167,-0.6659 -0.08343,0.0857 c -0.229907,0.23625 -1.364273,4.69692 -1.364383,5.36517 l -1.8e-5,0.11067 0.385266,0.13931 0.385266,0.13931 0.468056,0.43139 0.468056,0.4315 0.266785,0.5265 0.266786,0.5264 -0.06355,0.7437 c -0.03495,0.4089 -0.09212,0.8888 -0.127039,1.0664 l -0.06349,0.3228 1.121014,0.2353 1.121013,0.2352 0.794771,0.306 0.79477,0.3061 0.440303,0.3649 c 0.242167,0.2007 0.74278,0.6513 1.112474,1.0013 l 0.67217,0.6364 0.32994,0.1628 0.329939,0.1627 0.327086,0 c 0.179897,0 0.472212,-0.048 0.649589,-0.11 z m -6.092709,0.063 1.740506,0 0.659283,0.077 0.659283,0.077 0,-0.1612 0,-0.1611 -0.497426,-0.5318 -0.497426,-0.5318 -0.425569,-0.2429 c -0.61224,-0.3495 -1.310091,-0.551 -2.729921,-0.7884 l -1.249497,-0.2089 -0.378716,-0.1885 -0.378717,-0.1885 -0.207289,-0.2838 -0.207289,-0.2838 -0.09776,-1.1876 -0.09777,-1.1877 -0.142386,-0.2754 c -0.07831,-0.1514 -0.347582,-0.4808 -0.598378,-0.732 l -0.455992,-0.4567 -1.420508,-1.0091 -1.420506,-1.00911 -0.524717,-0.50576 c -0.288595,-0.27817 -0.537229,-0.50576 -0.552519,-0.50576 -0.01529,0 -0.0013,0.3196 0.03101,0.71023 l 0.05881,0.71023 0.320927,0.6347 0.320927,0.63471 0.08669,0.85106 0.08669,0.8511 0.33681,0.7197 0.33681,0.7198 0.04706,0.4897 0.04706,0.4898 -0.116371,0.4183 -0.116369,0.4183 0.210167,0.2638 c 0.335022,0.4203 0.60944,0.9801 0.689373,1.4062 l 0.07398,0.3943 0.176553,0.2181 0.176554,0.218 0.523045,0.1483 0.523046,0.1483 1.635021,-0.077 c 0.899262,-0.042 2.418249,-0.078 3.375528,-0.08 z m -31.892404,0.4926 c 0.125317,-0.2195 0.45294,-0.6495 0.728051,-0.9555 l 0.500203,-0.5563 0.590514,-0.4002 c 0.83412,-0.5652 1.261926,-0.7668 2.700218,-1.2723 0.696203,-0.2446 1.486932,-0.5389 1.757174,-0.6539 l 0.491351,-0.209 -0.261544,-0.5914 -0.261544,-0.5914 0,-0.5543 0,-0.5542 0.21479,-0.4856 c 0.268984,-0.6081 0.53465,-0.9481 1.039323,-1.33015 l 0.395978,-0.29979 0.501054,-0.16966 c 0.275581,-0.0933 0.501055,-0.20463 0.501055,-0.24736 0,-0.0427 -0.334834,-0.81028 -0.744076,-1.70566 -0.409242,-0.89538 -0.844571,-1.85344 -0.967398,-2.12902 l -0.223322,-0.50105 -0.10769,0 c -0.05923,0 -0.442729,0.19715 -0.852222,0.43811 l -0.744532,0.43812 -1.11432,1.11779 -1.11432,1.11779 -0.742659,1.00211 c -1.074588,1.44997 -1.915383,2.72897 -2.723605,4.14297 l -0.709987,1.2422 -0.256283,0.737 -0.256284,0.7369 -0.06248,0.6691 -0.06248,0.669 0.09294,0.1612 c 0.120133,0.2084 1.220811,1.123 1.358758,1.1291 l 0.105486,0 0.227849,-0.3992 z m 11.50868,0.1898 c 0.01522,-0.203 0.07709,-0.6724 0.137492,-1.0431 l 0.109822,-0.6739 0.273044,-0.5392 c 0.150175,-0.2965 0.380893,-0.6815 0.512709,-0.8556 l 0.239663,-0.3164 -0.05806,-0.9156 -0.05806,-0.9155 0.127859,-0.5085 c 0.07032,-0.2797 0.266678,-0.825 0.436344,-1.2119 l 0.308484,-0.7033 0,-0.3693 0,-0.3693 0.369199,-0.77038 0.369198,-0.77039 0,-0.24032 0,-0.24032 -0.191825,0 c -0.105503,0 -0.445064,0.0752 -0.754579,0.16712 l -0.562754,0.16712 -0.43213,0.27141 c -0.237671,0.14928 -0.764408,0.58946 -1.170526,0.9782 l -0.738397,0.70678 -0.754028,0.43538 -0.754029,0.4353 -0.266258,0.3164 -0.266258,0.3165 -0.2054,0.5554 c -0.112971,0.3055 -0.23669,0.7706 -0.274932,1.0336 l -0.06953,0.4781 -0.203828,0.3352 -0.203829,0.3351 -0.42123,0.2788 -0.42123,0.2787 -1.504237,0.5726 c -1.766627,0.6725 -2.263838,0.9462 -3.025098,1.6654 l -0.563983,0.5329 -0.148043,0.2863 c -0.08142,0.1574 -0.148043,0.3197 -0.148043,0.3606 l 0,0.074 1.872363,-0.063 1.872363,-0.063 1.258569,-0.274 1.258568,-0.2739 1.484048,0.4193 c 1.870144,0.5285 1.843877,0.5226 2.222444,0.5028 l 0.316455,-0.016 0.02767,-0.3692 z m 7.250812,0.524 c 0.986287,-0.059 2.430813,-0.1799 3.210056,-0.2692 l 1.416807,-0.1624 0.347761,-0.1453 0.347761,-0.1453 0.212887,-0.3492 0.212885,-0.3492 4.22e-4,-0.4414 4.21e-4,-0.4415 -0.101273,-0.2664 c -0.121666,-0.32 -0.48074,-0.6968 -0.663494,-0.6963 l -0.131857,3e-4 -0.730803,0.6325 -0.730801,0.6326 -0.138476,0 -0.138476,0 0.310115,-0.5011 c 0.170563,-0.2755 0.621074,-0.8885 1.001135,-1.362 l 0.690964,-0.8609 -0.0023,-0.2466 -0.0023,-0.2467 -0.203497,-0.4483 -0.203497,-0.4483 -0.260117,0 -0.260118,0 -0.852634,0.8021 c -0.468941,0.4412 -0.852627,0.7716 -0.852627,0.7342 0,-0.1689 0.483651,-0.9844 1.144528,-1.9297 0.39627,-0.5669 0.74431,-1.1018 0.773423,-1.1889 l 0.05293,-0.1582 -0.100788,-0.3692 c -0.05543,-0.2031 -0.19357,-0.49973 -0.30697,-0.65927 l -0.206183,-0.29009 -0.136109,0 -0.136111,0 -0.369146,0.5538 c -0.51324,0.76996 -1.251465,1.68806 -1.310144,1.62936 -0.09131,-0.091 0.39238,-1.3606 0.916399,-2.40484 l 0.522051,-1.04031 0,-0.37635 0,-0.37635 -0.153843,-0.2975 -0.153843,-0.2975 -0.558182,-0.50453 -0.558182,-0.50452 -0.580169,-0.26917 -0.580169,-0.26917 -0.649654,-0.0428 -0.649655,-0.0428 -0.521759,0.1733 c -0.286968,0.0953 -0.74289,0.31354 -1.01316,0.48494 l -0.4914,0.31164 -0.315034,0.49675 -0.315034,0.49676 0,0.38803 0,0.38803 0.161641,0.45813 c 0.0889,0.25198 0.397446,0.91972 0.685654,1.48387 l 0.524013,1.02569 0,0.1865 0,0.1865 -0.845964,-0.8643 -0.845963,-0.86433 -0.328373,-0.1698 -0.328371,-0.16981 -0.09242,0.1418 c -0.05083,0.078 -0.121364,0.25054 -0.15674,0.38343 l -0.06432,0.24162 0.134382,0.47999 0.134382,0.4799 0.522797,0.8607 c 0.287539,0.4734 0.665249,1.1429 0.839357,1.4878 l 0.316558,0.627 0.05553,0.6124 0.05553,0.6124 -0.05529,0 c -0.05466,0 -0.619417,-0.929 -1.186331,-1.9514 -0.160839,-0.2901 -0.413695,-0.658 -0.561902,-0.8175 l -0.269467,-0.2902 -0.134782,0 -0.134781,0 -0.109197,0.2041 -0.109196,0.204 0.0025,0.6135 0.0025,0.6135 0.273468,0.6329 c 0.150407,0.3481 0.438206,1.0283 0.639552,1.5116 l 0.366083,0.8787 -0.06175,0.062 -0.06175,0.062 -0.72828,-0.7031 c -0.400547,-0.3867 -0.776652,-0.7031 -0.835782,-0.7031 l -0.107508,0 -0.324689,0.6498 -0.324689,0.6497 0,0.4498 0,0.4497 0.271414,0.3226 0.271413,0.3225 0.440612,0.1205 c 1.041166,0.2847 2.671363,0.3465 5.187447,0.1965 z m 17.568256,1.1731 c -0.164246,-0.3069 -1.13088,-1.1174 -1.706038,-1.4304 l -0.512178,-0.2788 -0.712994,-0.057 -0.712995,-0.057 -1.951477,0.1704 c -2.352492,0.2054 -4.643408,0.4813 -4.830946,0.5818 l -0.136854,0.073 0.283358,0.2833 0.283358,0.2834 0.531924,0.1579 0.531924,0.158 2.90807,0.01 2.908069,0.01 1.160338,0.1327 c 0.638185,0.073 1.363748,0.1397 1.612361,0.1483 l 0.452024,0.016 -0.107944,-0.2017 z m -35.448002,0.5601 0.580168,-0.154 0.843882,-0.055 c 0.464135,-0.03 1.033756,-0.073 1.265823,-0.096 0.232068,-0.022 1.374425,0.01 2.538572,0.064 l 2.116632,0.1044 0.754681,-0.1574 c 0.415075,-0.087 0.969711,-0.2525 1.232525,-0.3687 l 0.477843,-0.2114 0,-0.1114 0,-0.1114 -0.301949,0 c -0.166073,0 -0.889965,-0.1206 -1.60865,-0.268 l -1.3067,-0.268 -1.004672,-0.063 -1.004673,-0.063 -1.26326,0.1275 c -1.474407,0.1489 -2.567424,0.3748 -3.167002,0.6547 l -0.426949,0.1993 -0.337819,0.4395 c -0.185801,0.2418 -0.337819,0.4835 -0.337819,0.5372 l 0,0.097 0.184599,-0.072 c 0.101529,-0.039 0.445675,-0.1409 0.764768,-0.2255 z m 18.577418,0.9677 0.803158,-0.1432 0.50567,-0.2237 c 0.278121,-0.123 0.996605,-0.5161 1.596633,-0.8736 l 1.09096,-0.6498 0,-0.092 0,-0.092 -0.342827,0.053 c -0.188555,0.029 -0.556434,0.077 -0.81751,0.1075 l -0.474684,0.054 -4.272152,-0.085 -4.272152,-0.085 -0.0775,0.1143 c -0.04262,0.063 -0.07823,0.1915 -0.07911,0.2858 l -0.0016,0.1715 0.731523,0.3845 c 0.402338,0.2114 1.047171,0.5032 1.432962,0.6484 l 0.701439,0.264 0.808599,0.1463 c 0.44473,0.081 1.045941,0.1489 1.336025,0.1521 l 0.527426,0.01 0.803157,-0.1433 z m -19.083464,1.6653 c 1.443092,-0.5929 2.469586,-0.9267 3.511423,-1.1419 l 0.783196,-0.1618 0.992381,0 0.992381,0 1.200885,0.2717 1.200885,0.2717 0.939665,0.062 0.939663,0.061 -0.07352,-0.254 c -0.04043,-0.1397 -0.100845,-0.4036 -0.134245,-0.5863 l -0.06073,-0.3323 -1.649301,-0.081 c -0.907115,-0.045 -2.479997,-0.084 -3.495292,-0.088 l -1.845992,-0.01 -1.302028,0.1852 -1.302027,0.1851 -0.317981,0.1645 c -0.554038,0.2865 -1.664511,1.527 -1.666177,1.8614 -5.91e-4,0.1181 0.0027,0.117 1.286809,-0.4105 z m 36.840481,0.094 c -0.03899,-0.2756 -0.152654,-0.6909 -0.252581,-0.923 l -0.181687,-0.4219 -0.387262,-0.34 -0.387263,-0.3401 -0.591338,-0.1719 -0.591338,-0.1719 -4.286884,0.03 -4.286884,0.03 -0.527426,-0.084 -0.527426,-0.084 0.356165,0.3742 0.356167,0.3742 0.645943,0.3504 0.645944,0.3504 1.265823,-0.01 c 0.696202,0 2.001582,-0.027 2.900844,-0.053 l 1.635021,-0.048 1.160337,0.4011 c 0.638186,0.2205 1.540085,0.5844 2.00422,0.8085 0.464135,0.2241 0.906125,0.4116 0.982201,0.4165 l 0.138321,0.01 -0.0709,-0.5011 z m -18.274062,0.9902 0.477869,-0.1439 0.476411,-0.3277 0.476411,-0.3278 1.197583,-0.113 c 0.658671,-0.062 1.304827,-0.1398 1.435903,-0.1727 l 0.238319,-0.06 0,-0.1055 0,-0.1055 -0.237342,0.059 c -0.130538,0.033 -0.63052,0.092 -1.111072,0.1324 l -0.87373,0.073 -1.368227,-0.2466 -1.368228,-0.2466 -1.095008,0.2838 -1.095006,0.2837 -1.086788,0.1116 -1.086788,0.1115 -0.402197,-0.068 -0.402196,-0.068 0,0.059 c 0,0.033 0.140047,0.1317 0.311217,0.2202 l 0.311217,0.161 1.15683,0 1.156832,0 0.507862,0.2177 c 0.594191,0.2547 1.120518,0.3898 1.576197,0.4046 l 0.326062,0.011 0.477869,-0.1438 z m -16.703965,0.9866 1.514636,-0.2099 0.87296,0 0.872961,0 1.96529,0.2664 1.965289,0.2665 0.935754,-0.2197 0.935754,-0.2197 0.187898,-0.1374 0.187898,-0.1374 -0.255019,-0.7268 -0.255019,-0.7269 -0.843882,-0.1195 c -1.360992,-0.1926 -3.578914,-0.3552 -4.845263,-0.3552 l -1.175813,0 -0.61171,0.1593 c -0.811933,0.2115 -1.545245,0.5287 -2.423195,1.0481 l -0.722647,0.4276 -0.358576,0.3959 c -0.197217,0.2177 -0.358577,0.4494 -0.358577,0.5149 l 0,0.1191 0.448313,-0.068 c 0.246571,-0.037 1.129898,-0.1621 1.962948,-0.2776 z m 34.884494,0.1485 -0.06662,-0.2654 -0.418526,-0.454 -0.418525,-0.4541 -0.675795,-0.3327 -0.675796,-0.3327 -0.817713,-0.2091 -0.817713,-0.2091 -1.064349,-9e-4 -1.06435,-8e-4 -1.265823,0.123 -1.265823,0.123 -0.896624,-0.1794 c -0.493144,-0.099 -1.196335,-0.2772 -1.562646,-0.3967 -0.366311,-0.1195 -0.676906,-0.2006 -0.69021,-0.1801 -0.08409,0.1294 -0.489476,1.7077 -0.449006,1.7482 0.02737,0.027 0.397273,0.1411 0.822012,0.2528 l 0.772255,0.203 1.002109,0.1141 1.00211,0.114 1.635021,-0.133 c 0.899262,-0.073 2.180907,-0.1366 2.848101,-0.141 l 1.213081,-0.01 0.751909,0.2349 c 0.413549,0.1292 1.054372,0.3708 1.424051,0.5369 l 0.672141,0.3019 0.03667,-0.095 c 0.02017,-0.052 0.0067,-0.2141 -0.02995,-0.3601 z m -17.529022,1.5088 0.867183,-0.4613 1.101818,-0.069 1.101819,-0.069 0.384152,-0.108 0.384152,-0.1081 0.131934,-0.1589 c 0.07257,-0.087 0.113245,-0.1777 0.0904,-0.2005 -0.02284,-0.023 -0.442999,0.053 -0.933678,0.1697 l -0.892143,0.2113 -0.373549,-0.043 c -0.205451,-0.024 -0.97462,-0.2037 -1.709264,-0.3998 l -1.335717,-0.3565 -0.879473,0.3784 -0.879473,0.3785 -0.580169,0.065 -0.580169,0.065 -0.632911,-0.094 -0.632912,-0.094 -0.08478,0.079 -0.08478,0.079 0.506724,0.2153 0.506723,0.2153 0.770026,0.075 0.770025,0.075 0.29852,0.2512 c 0.164187,0.1382 0.41103,0.299 0.548541,0.3574 l 0.250019,0.1061 0.509902,-0.048 0.509902,-0.048 0.867182,-0.4613 z m 22.310146,0.8227 0.117793,-1.1604 -3.16e-4,-2.0194 -3.17e-4,-2.0194 -0.109642,-1.0924 c -0.162335,-1.6174 -0.379833,-3.0061 -0.687973,-4.3927 l -0.27454,-1.2356 -0.574816,-1.7405 -0.574818,-1.7405 -0.834175,-1.6878 -0.834176,-1.68771 -0.737039,-1.1076 c -1.826416,-2.74467 -3.704948,-4.64842 -6.44532,-6.53187 l -0.787742,-0.54141 -0.07405,0.20017 c -0.04073,0.11009 -0.107189,0.74034 -0.147697,1.40056 l -0.07365,1.2004 1.357381,1.15542 1.357381,1.15541 1.641872,1.63994 1.641873,1.63995 0.79497,1.00211 c 0.999153,1.25953 1.704612,2.34803 2.158838,3.33113 l 0.353896,0.766 0.119064,0.5552 0.119063,0.5551 -0.05137,0.64 -0.05137,0.64 -0.23855,0.5545 -0.238552,0.5545 -0.359549,0.3157 -0.359548,0.3157 -0.69327,0 -0.693269,0 0.08369,0.1846 c 0.04603,0.1015 0.257064,0.704 0.468962,1.3387 l 0.38527,1.1542 0.589779,0.4555 0.58978,0.4556 0.49475,0.7442 0.49475,0.7443 0.364146,0.8633 c 0.382801,0.9076 0.932399,2.6544 1.244916,3.9567 l 0.185404,0.7726 0.08019,-0.087 0.08019,-0.087 0.117792,-1.1603 z m -40.4946,0.8038 c 1.957379,-0.5985 2.823374,-0.8082 3.744726,-0.907 l 0.632911,-0.068 2.789116,0.2711 2.789117,0.2711 0.09728,-0.097 0.09728,-0.097 -0.07587,-0.9585 -0.07587,-0.9585 -0.173401,0 c -0.09537,0 -0.480386,0.07 -0.855589,0.1499 l -0.682189,0.1462 -2.462581,-0.2012 -2.462582,-0.2011 -1.180124,0.3767 -1.180124,0.3768 -0.844868,0.4036 -0.844868,0.4036 -0.493352,0.4343 -0.493352,0.4342 -0.217688,0.3523 c -0.119728,0.1937 -0.217687,0.3854 -0.217687,0.426 l 0,0.074 0.184599,-0.051 c 0.10153,-0.028 0.967827,-0.2906 1.925106,-0.5833 z m 35.75941,0.4884 -8.3e-5,-0.4484 -0.311528,-0.6585 -0.311526,-0.6585 -0.483035,-0.4694 -0.483034,-0.4695 -0.56753,-0.2685 -0.56753,-0.2685 -0.746641,-0.128 -0.746641,-0.128 -1.556796,0.1319 c -0.856238,0.073 -2.150151,0.1815 -2.875362,0.242 l -1.318565,0.11 -1.028481,-0.04 -1.028481,-0.04 0,0.1917 c 0,0.1054 -0.06807,0.3546 -0.151273,0.5537 l -0.151273,0.3621 0.546842,0.3111 0.546843,0.311 0.623948,0.1799 0.623948,0.18 0.800102,-0.058 c 0.440057,-0.032 1.203585,-0.1363 1.696728,-0.2326 l 0.896624,-0.1751 1.371308,-0.017 1.371308,-0.017 0.527427,0.1487 c 0.737254,0.2079 1.785118,0.7512 2.531645,1.3127 0.348101,0.2618 0.668513,0.4792 0.712026,0.4831 l 0.07911,0.01 -8.3e-5,-0.4483 z m -17.576469,0.668 0.514164,-0.2235 1.226342,-0.2518 c 1.283015,-0.2634 1.59553,-0.355 1.595555,-0.4677 l 1.6e-5,-0.068 -0.876136,0.036 -0.876137,0.036 -0.416073,-0.1792 -0.416073,-0.1791 -1.048338,-0.077 -1.048336,-0.077 -0.639427,0.2151 -0.639426,0.215 -1.872363,-0.015 c -1.0298,-0.01 -1.872363,0 -1.872363,0.027 0,0.086 0.826849,0.2557 1.962365,0.4022 l 1.171226,0.151 0.516537,0.3868 0.516538,0.3868 0.843882,-0.047 0.843882,-0.047 z m -24.723296,0.9142 c 0.654917,-3.0535 1.47441,-5.6726 2.269121,-7.2521 l 0.451123,-0.8966 0.629963,-0.7911 c 0.679243,-0.8531 0.974958,-1.3555 0.974958,-1.6565 l 0,-0.1902 -0.749299,-0.8331 -0.7493,-0.8331 0.07302,-0.8016 c 0.304591,-3.3439 1.349568,-5.6495 4.114755,-9.07857 l 1.054152,-1.30723 0.991101,-0.99111 0.991101,-0.9911 0.815769,-0.57162 c 0.448673,-0.3144 0.863434,-0.63125 0.921689,-0.70413 l 0.105921,-0.1325 0.07292,-0.60314 c 0.04011,-0.33172 0.158109,-0.96068 0.262223,-1.39767 l 0.189298,-0.79455 -0.180367,0 -0.180367,0 -0.905805,0.56869 c -1.765216,1.10823 -3.579326,2.61868 -5.320688,4.43007 l -1.167715,1.21467 -0.653258,0.87535 c -1.227577,1.64494 -1.955231,3.09504 -2.683397,5.34774 -1.016443,3.1445 -1.878555,7.7907 -2.173893,11.7157 l -0.109147,1.4506 0.108732,1.8346 c 0.0598,1.0091 0.162828,2.3213 0.228946,2.916 l 0.120216,1.0812 0.0766,0 0.0766,0 z m 24.683815,1.6123 0.580168,-0.2946 0.474684,-0.07 c 0.770506,-0.1137 1.896442,-0.3939 1.953455,-0.4861 l 0.05284,-0.085 -1.011307,0.06 -1.011306,0.06 -1.048137,-0.1388 -1.048135,-0.1387 -0.394127,0.14 -0.394128,0.1401 -1.635021,0.063 -1.635021,0.063 0.316456,0.1431 0.316455,0.1432 0.79114,0.048 0.791139,0.048 0.52089,0.2733 c 0.286491,0.1504 0.666237,0.3087 0.843882,0.3518 l 0.322992,0.078 0.316455,-0.052 c 0.174051,-0.029 0.577532,-0.1847 0.896625,-0.3467 z m 17.363401,0.1492 -0.0708,-0.691 -0.213153,-0.5697 -0.213153,-0.5697 -0.45864,-0.5101 -0.458639,-0.5101 -0.511429,-0.2773 -0.511429,-0.2773 -0.652211,-0.1681 -0.652212,-0.1681 -3.461712,0.027 -3.461713,0.027 -0.738397,-0.22 c -0.406118,-0.1211 -0.805186,-0.2398 -0.886819,-0.2638 l -0.148423,-0.044 -0.175192,0.9814 -0.175192,0.9814 0.0599,0.036 c 0.03295,0.02 0.692545,0.1687 1.465777,0.3309 l 1.405876,0.295 2.567621,-0.2985 2.567622,-0.2986 0.543436,0.072 0.543435,0.072 0.546358,0.244 0.546359,0.244 0.664163,0.5024 0.664163,0.5024 0.546011,0.6203 c 0.300307,0.3411 0.589476,0.6203 0.642598,0.6203 l 0.09659,0 -0.0708,-0.6911 z m -36.858708,1.117 c 0.424423,-0.3458 1.103957,-0.9146 1.510075,-1.2638 l 0.738396,-0.635 0.843882,-0.4237 0.843882,-0.4237 0.628703,-0.1584 0.628702,-0.1585 0.63712,-4e-4 0.637121,-4e-4 1.815145,0.2787 1.815147,0.2787 0.568879,-0.2784 c 0.312884,-0.1531 0.765848,-0.421 1.006584,-0.5954 l 0.437704,-0.317 0,-0.2079 0,-0.2079 -0.237341,-0.1553 -0.237342,-0.1554 -1.898734,-0.1364 -1.898734,-0.1364 -1.951477,5e-4 -1.951477,4e-4 -0.591274,0.238 c -0.792272,0.3189 -1.498195,0.7988 -2.18422,1.4848 l -0.567745,0.5677 -0.475696,0.7354 c -0.62344,0.9638 -1.166324,2.2987 -0.934811,2.2987 0.02521,0 0.393087,-0.283 0.817511,-0.6289 z m 18.892969,1.4587 c 0.244261,-0.1239 0.633983,-0.3563 0.866051,-0.5167 l 0.421941,-0.2915 0.701667,-0.065 c 0.385917,-0.036 0.848734,-0.1167 1.028481,-0.1793 l 0.326814,-0.114 0,-0.086 0,-0.086 -1.081224,-0.061 c -0.594673,-0.034 -1.566821,-0.09 -2.160328,-0.1249 l -1.079104,-0.064 -0.661402,0.3141 -0.661402,0.3142 -1.265823,-0.1917 c -0.696202,-0.1054 -1.408228,-0.1934 -1.582278,-0.1955 l -0.316456,0 0.21097,0.1599 0.210971,0.1599 1.845991,0.5847 c 1.015296,0.3216 1.89346,0.6004 1.951477,0.6195 0.05802,0.019 0.261649,0.039 0.452515,0.043 l 0.347029,0.01 0.44411,-0.2251 z m 17.543884,0.1987 -0.06854,-0.4483 -0.328073,-0.6742 -0.328073,-0.6741 -0.698092,-0.7085 -0.698093,-0.7086 -0.369198,-0.1896 c -0.20306,-0.1043 -0.606541,-0.2529 -0.896625,-0.3302 l -0.527426,-0.1406 -1.005848,0 -1.005849,0 -1.209341,0.2362 -1.209342,0.2363 -1.875208,0 -1.875207,0 -0.199677,0.6376 -0.199677,0.6375 0.154937,0.1209 0.154937,0.1209 0.706867,0.1428 0.706868,0.1428 3.184221,-0.029 3.184223,-0.029 0.771474,0.159 0.771474,0.159 0.860176,0.4241 0.860177,0.4241 0.511131,0.4703 c 0.281123,0.2587 0.5528,0.4723 0.603728,0.4746 l 0.0926,0 -0.06854,-0.4483 z m -34.955118,0.1313 1.313108,-0.7389 0.780737,-0.2656 0.780737,-0.2655 0.950297,-0.1001 c 0.522663,-0.055 1.9946,-0.1519 3.270971,-0.2152 l 2.320675,-0.115 0.738397,-0.1253 0.738397,-0.1253 -0.03786,-0.6857 c -0.02082,-0.3771 -0.05975,-0.7221 -0.0865,-0.7666 l -0.04864,-0.081 -1.706749,0.01 -1.706749,0.01 -1.181758,-0.1257 -1.181758,-0.1258 -1.086174,0.044 -1.086175,0.044 -0.580169,0.2816 -0.580169,0.2817 -0.603569,0.4765 -0.603568,0.4766 -0.590637,0.7128 -0.590637,0.7128 -0.361701,0.643 c -0.198936,0.3537 -0.361702,0.6741 -0.361702,0.7121 0,0.1476 0.233455,0.043 1.501196,-0.67 z m 2.433403,1.2709 c 1.690815,-0.4712 2.5899,-0.6355 3.484535,-0.6366 l 0.615335,-9e-4 0.808715,0.2059 c 0.444793,0.1132 1.124352,0.238 1.51013,0.2772 l 0.701416,0.071 0.578982,-0.072 0.578982,-0.072 0.196395,-0.1436 0.196396,-0.1436 -0.226878,-0.2458 -0.226877,-0.2459 -0.157487,-0.4747 -0.157486,-0.4746 -0.459518,-0.027 c -0.252735,-0.015 -1.480087,-0.066 -2.72745,-0.1139 l -2.267933,-0.087 -0.685654,0.1532 -0.685654,0.1532 -0.636112,0.2865 -0.63611,0.2864 -0.410472,0.36 c -0.595644,0.5223 -1.180816,1.362 -0.949162,1.362 0.03191,0 0.732067,-0.1878 1.555907,-0.4174 z m 31.27909,0.3046 c -0.06209,-0.1782 -0.261361,-0.5449 -0.442825,-0.815 l -0.329936,-0.4911 -0.564694,-0.3931 -0.564693,-0.3932 -0.665134,-0.2214 -0.665133,-0.2213 -0.746618,-0.08 -0.746618,-0.08 -1.926509,0.186 -1.926508,0.1859 -1.237933,0 -1.237933,0 -0.323803,0.6414 -0.323804,0.6415 0.129277,0.1557 c 0.217428,0.262 1.016017,0.6849 1.688806,0.8943 l 0.638532,0.1987 0.358786,0 0.358786,0 1.856641,-0.5358 1.856642,-0.5359 1.299319,0.035 1.299321,0.035 1.038091,0.5409 c 0.57095,0.2975 1.094956,0.5467 1.16446,0.5538 l 0.126369,0.013 -0.112889,-0.3239 z m -15.659165,0.4377 0.751383,-0.4135 0.679668,-0.1223 0.679668,-0.1222 0.480669,-0.2599 0.48067,-0.2599 -0.316456,0.059 c -0.17405,0.033 -0.482595,0.086 -0.685654,0.1188 l -0.369198,0.06 -1.107595,-0.2303 -1.107595,-0.2302 -0.843882,-0.055 -0.843882,-0.055 -0.880433,0.2381 -0.880435,0.238 -0.679476,-0.063 -0.679477,-0.064 0.06976,0.1129 c 0.03837,0.062 0.265644,0.2018 0.505058,0.3105 l 0.435299,0.1977 0.561162,0 0.561164,0 0.46741,0.3215 c 0.257075,0.1769 0.62164,0.3887 0.810145,0.4706 l 0.342735,0.149 0.408954,0 0.408955,0 0.751383,-0.4135 z m -0.797031,2.3984 0.586972,-0.3359 1.081579,-0.077 c 0.594868,-0.042 1.179072,-0.1081 1.298231,-0.1459 l 0.216653,-0.069 0,-0.1353 0,-0.1352 -0.764768,0.047 -0.764768,0.047 -1.107466,-0.1027 -1.107467,-0.1027 -0.580297,0.1542 -0.580297,0.1543 -0.474684,-0.055 -0.474683,-0.055 -0.79114,-0.2752 c -0.435126,-0.1514 -0.897943,-0.3022 -1.028481,-0.335 l -0.237341,-0.06 0,0.1151 0,0.1151 0.331521,0.1714 c 0.182336,0.094 0.85876,0.3622 1.503164,0.5952 0.644404,0.2331 1.408986,0.5117 1.69907,0.619 0.290084,0.1074 0.545382,0.1968 0.567328,0.1986 0.02195,0 0.30404,-0.1476 0.626874,-0.3323 z m -14.475643,-0.019 0.959065,-0.3741 2.732918,0.061 2.732918,0.061 0.632155,-0.1199 0.632154,-0.1198 0.47174,-0.2362 0.47174,-0.2362 0.121346,-0.3164 0.121346,-0.3165 -0.159801,-0.562 -0.159801,-0.5619 -0.221557,0.06 c -0.121857,0.033 -0.730128,0.1171 -1.351714,0.1871 l -1.130156,0.1274 -1.523375,-0.2466 -1.523377,-0.2465 -0.721996,0.052 -0.721995,0.052 -0.534121,0.2711 -0.534119,0.2712 -0.397959,0.4404 -0.39796,0.4405 -0.360115,0.7515 c -0.198063,0.4133 -0.360114,0.8172 -0.360114,0.8975 l 0,0.1461 0.131856,-0.054 c 0.07252,-0.03 0.563436,-0.2226 1.090922,-0.4283 z m 30.057458,-0.5393 -0.172921,-0.6357 -0.345791,-0.4747 -0.345791,-0.4747 -0.522973,-0.2845 -0.522971,-0.2844 -0.584353,-0.047 -0.584351,-0.047 -0.888518,0.1416 c -0.488684,0.078 -1.576808,0.2858 -2.418053,0.4621 l -1.529536,0.3206 -0.949367,-3e-4 -0.949367,-2e-4 -0.517819,-0.1571 c -0.284801,-0.086 -0.55259,-0.1571 -0.595087,-0.1571 -0.0425,0 -0.155255,0.195 -0.250574,0.4332 l -0.173306,0.4331 0.11589,0.1397 0.115889,0.1396 0.652504,0.2271 0.652503,0.227 0.896625,0.054 0.896624,0.054 1.555089,-0.2212 1.555089,-0.2212 0.839255,0 0.839255,0 0.822956,0.2602 0.822955,0.2602 0.843882,0.5221 0.843882,0.5221 0.03565,-0.2784 0.03565,-0.2785 -0.172922,-0.6357 z m -0.91662,2.5129 -0.353068,-0.5874 -0.511252,-0.462 -0.511253,-0.462 -0.686568,-0.2121 -0.686567,-0.2121 -0.753657,0 -0.753657,0 -1.582278,0.207 -1.582279,0.207 -0.652386,0 -0.652387,0 -0.754559,-0.1588 -0.754559,-0.1587 -0.09622,0.06 -0.09622,0.059 0,0.4028 0,0.4028 0.135587,0.1125 c 0.224467,0.1863 1.746051,0.7647 2.338487,0.889 l 0.553877,0.1162 1.252261,-0.2959 1.252262,-0.2959 1.163088,0.055 1.163088,0.055 0.859244,0.2759 c 0.472583,0.1517 1.113406,0.3887 1.42405,0.5265 l 0.564807,0.2507 0.03661,-0.098 0.03661,-0.098 -0.353066,-0.5874 z m -28.44564,0.8162 c 0.656611,-0.169 1.582115,-0.3639 2.056675,-0.433 l 0.862839,-0.1257 1.299609,0.063 c 0.714786,0.034 1.871373,0.092 2.570196,0.127 l 1.270586,0.064 0.123827,-0.1492 0.123828,-0.1492 -0.07585,-0.837 -0.07585,-0.837 -0.21097,0 c -0.116034,0 -1.611287,0.039 -3.322785,0.086 l -3.111814,0.086 -0.702415,0.1434 -0.702414,0.1434 -0.322691,0.1669 c -0.557649,0.2884 -1.186575,1.0744 -1.334765,1.6681 l -0.0724,0.2901 0.215277,0 c 0.118403,0 0.752505,-0.1383 1.409115,-0.3073 z m 13.991585,0.5177 c 0.250786,-0.1138 0.583064,-0.2969 0.738396,-0.4069 l 0.282422,-0.1999 0.827339,-0.2261 c 0.455036,-0.1244 0.965321,-0.2975 1.133966,-0.3847 l 0.306628,-0.1586 0,-0.1626 0,-0.1626 -0.184599,0.056 c -0.10153,0.031 -0.574881,0.178 -1.051893,0.3272 l -0.867292,0.2713 -0.398531,-0.2003 c -0.219191,-0.1102 -0.567281,-0.2549 -0.773534,-0.3215 l -0.375006,-0.1212 -0.617247,0.2124 c -0.339485,0.1168 -0.727843,0.2124 -0.863019,0.2124 l -0.245772,0 -1.125707,-0.4229 c -0.619141,-0.2325 -1.148364,-0.4002 -1.176054,-0.3725 -0.02769,0.028 0.02773,0.1695 0.123164,0.3152 l 0.173511,0.2648 0.289091,0.1477 c 0.159,0.081 0.450126,0.1824 0.646949,0.2249 l 0.357858,0.077 0.442192,0.4076 0.442191,0.4076 0.465773,0.2113 0.465773,0.2113 0.263713,0 0.263713,0 z m 13.626303,0.9846 0,-0.1763 -0.452046,-0.4302 -0.452046,-0.4303 -0.523692,-0.26 -0.523692,-0.2601 -0.685654,-0.039 -0.685654,-0.039 -1.190336,0.1674 -1.190335,0.1673 -1.156291,0 -1.156291,0 -0.640296,-0.2216 c -0.352162,-0.1218 -0.654813,-0.2049 -0.672558,-0.1846 -0.01774,0.02 -0.06393,0.2555 -0.10264,0.5224 l -0.07038,0.4855 0.768887,0.2775 c 0.422889,0.1526 1.019419,0.33 1.325625,0.3942 l 0.556737,0.1167 1.078284,-0.231 1.078284,-0.2311 0.949367,0.01 0.949367,0.01 1.160337,0.2535 c 0.638186,0.1394 1.267142,0.2589 1.39768,0.2655 l 0.237341,0.012 0,-0.1763 z m -27.431755,0.4881 1.312971,-0.3499 1.060447,0.125 c 0.583246,0.069 1.511397,0.1957 2.062557,0.282 0.55116,0.086 1.215717,0.1566 1.476793,0.156 l 0.474684,0 0.726874,-0.154 0.726874,-0.154 0.243677,-0.1597 0.243677,-0.1596 -0.136855,-0.3966 -0.136855,-0.3965 -3.101629,-0.29 -3.101628,-0.2899 -0.61998,0.1024 -0.619981,0.1025 -0.487614,0.2353 -0.487615,0.2354 -0.510266,0.4763 -0.510266,0.4762 -0.159506,0.3084 -0.159506,0.3085 0.195088,-0.053 c 0.107299,-0.029 0.785925,-0.2109 1.508059,-0.4033 z m 15.18527,0.3287 1.308368,-0.1032 0.110409,-0.1104 0.110409,-0.1104 -0.574895,0 -0.574894,-10e-5 -0.843882,-0.1567 c -0.464135,-0.086 -1.043612,-0.2105 -1.287726,-0.2762 l -0.443844,-0.1194 -0.716493,0.1744 -0.716494,0.1744 -0.921469,-0.3729 c -0.506808,-0.2051 -0.98828,-0.3729 -1.069938,-0.3729 l -0.148468,0 -0.05955,0.1552 -0.05955,0.1552 0.161971,0.1619 c 0.293057,0.2931 0.567645,0.3846 2.078979,0.6928 l 1.494811,0.3048 0.421941,-0.047 c 0.232068,-0.026 1.010707,-0.093 1.730308,-0.1498 z m 12.035515,1.5871 c 0,-0.051 -0.286471,-0.383 -0.636603,-0.7375 l -0.636605,-0.6446 -0.339134,-0.18 -0.339135,-0.1801 -1.054852,-0.038 -1.054852,-0.038 -1.265823,0.1385 -1.265823,0.1384 -0.949367,-0.065 c -0.522152,-0.036 -1.173627,-0.1014 -1.447723,-0.1458 l -0.498354,-0.081 -0.107343,0.2824 c -0.05904,0.1552 -0.134981,0.3924 -0.168762,0.527 l -0.06142,0.2447 0.192432,0.058 c 0.105838,0.032 0.464205,0.1569 0.796372,0.2781 l 0.603938,0.2202 0.76737,0.1096 0.767369,0.1097 2.215412,-0.2839 2.215414,-0.284 1.054628,0.3226 c 1.220755,0.3734 1.212858,0.3717 1.212858,0.2493 z m -26.888877,0.3198 c 0.313671,-0.1074 0.740149,-0.2266 0.947727,-0.2651 l 0.377417,-0.07 1.679545,0.2609 1.679547,0.261 1.773037,-0.3537 c 0.975169,-0.1945 1.792584,-0.3732 1.816475,-0.3971 0.02389,-0.024 -0.03822,-0.219 -0.138015,-0.4336 l -0.181455,-0.3902 -0.66298,0.046 -0.662979,0.046 -1.393983,-0.103 -1.393982,-0.103 -1.01868,-0.206 c -0.560274,-0.1133 -1.186139,-0.206 -1.390812,-0.206 l -0.372133,0 -0.296951,0.1122 c -0.544698,0.2058 -1.241468,1.0496 -1.453444,1.7602 l -0.07081,0.2373 0.09608,0 c 0.05284,0 0.352721,-0.088 0.666391,-0.1952 z m 13.854024,0.2283 c 0.584254,-0.2125 1.107374,-0.4256 1.16249,-0.4735 l 0.100211,-0.087 -0.960631,0 -0.960632,0 -0.669115,-0.3002 -0.669116,-0.3002 -0.455413,0.1934 c -0.250477,0.1064 -0.760762,0.2497 -1.133966,0.3184 l -0.678553,0.1251 0,0.1255 0,0.1256 0.673889,0.054 0.673891,0.054 0.618303,0.3231 0.618305,0.3232 0.309029,-0.047 c 0.169966,-0.026 0.787054,-0.2215 1.371308,-0.4341 z m 12.296456,2.1016 0,-0.186 -0.377319,-0.5603 -0.37732,-0.5603 -0.473519,-0.3349 c -0.260434,-0.1842 -0.624659,-0.3907 -0.809388,-0.4588 l -0.335871,-0.1238 -0.527426,-0.01 -0.527427,-0.01 -0.949367,0.156 -0.949367,0.156 -1.217289,0 -1.217289,0 -0.607478,-0.1582 c -0.334113,-0.087 -0.643253,-0.1583 -0.686979,-0.1583 -0.08373,0 -0.439047,0.9135 -0.438154,1.1264 l 5.28e-4,0.1243 0.567957,0.1271 0.567955,0.1271 1.14618,-0.065 c 0.630397,-0.036 1.530884,-0.095 2.001079,-0.1322 l 0.854899,-0.067 0.832864,0.1693 0.832863,0.1692 1.21308,0.4156 c 0.667195,0.2285 1.272416,0.4191 1.344937,0.4236 l 0.131851,0.01 0,-0.186 z m -12.447257,0.4381 c 0.261076,-0.15 0.771361,-0.365 1.133966,-0.4777 l 0.659283,-0.2048 0,-0.077 0,-0.077 -1.373666,-0.1837 -1.373665,-0.1837 -0.421548,0.215 -0.421547,0.2151 -1.056596,-0.1453 -1.056596,-0.1453 -0.05426,0.088 -0.05426,0.088 0.335119,0.2038 0.33512,0.2038 0.613578,0.071 0.613579,0.071 0.454202,0.2985 0.454204,0.2986 0.369198,0.01 0.369198,0.01 0.474684,-0.2728 z m -13.646525,0.4232 c 0.887431,-0.3356 1.817506,-0.6256 2.517833,-0.7851 l 0.527426,-0.1201 1.951477,-0.033 1.951477,-0.033 0.735357,-0.1216 c 0.404448,-0.067 0.753846,-0.1402 0.776443,-0.1628 0.0226,-0.023 -0.04329,-0.3094 -0.146424,-0.6372 l -0.187509,-0.5962 -0.143313,-0.055 -0.143315,-0.055 -1.553214,0.1209 c -0.854269,0.066 -2.143871,0.195 -2.865785,0.2856 l -1.31257,0.1646 -0.793718,0.203 -0.793716,0.203 -0.353009,0.3413 -0.353009,0.3413 -0.309692,0.5403 c -0.295514,0.5155 -0.358515,0.6728 -0.269507,0.6728 0.0221,0 0.366247,-0.1233 0.764768,-0.2741 z m 13.201601,1.3711 0.392181,-0.1688 0.922185,-0.057 0.922184,-0.057 0.132668,-0.1605 0.132668,-0.1605 -0.974962,0.073 -0.974963,0.073 -0.326229,-0.241 -0.326229,-0.2411 -1.388681,-0.01 -1.388683,-0.01 -0.355326,-0.082 -0.355327,-0.082 0.047,0.143 c 0.02585,0.079 0.204635,0.2498 0.397298,0.3803 l 0.350294,0.2374 0.558344,0 0.558344,0 0.07163,0.1159 c 0.09821,0.1589 0.679477,0.4023 0.972689,0.4074 l 0.24073,0 0.392181,-0.1688 z m -11.316679,-0.1579 0.843881,-0.2295 1.424051,0.085 c 0.783228,0.047 1.643647,0.084 1.912043,0.083 l 0.487992,0 0.858401,-0.4029 c 0.472121,-0.2215 0.905971,-0.4601 0.964112,-0.5301 l 0.10571,-0.1274 -1.874045,-0.072 c -1.030724,-0.039 -2.324993,-0.075 -2.876154,-0.081 l -1.00211,-0.01 -0.474683,0.1278 -0.474684,0.1277 -0.40291,0.2751 -0.402909,0.275 -0.150888,0.2918 c -0.08299,0.1604 -0.150888,0.3448 -0.150888,0.4096 l 0,0.1178 0.1846,-0.056 c 0.101529,-0.031 0.564346,-0.159 1.028481,-0.2852 z m 18.607261,1.3677 1.202198,-0.1224 1.276705,0.064 1.276705,0.064 -0.362215,-0.31 c -0.46207,-0.3954 -1.127982,-0.708 -1.828846,-0.8585 l -0.551555,-0.1185 -1.424051,0.078 c -0.783228,0.043 -1.946202,0.1089 -2.584388,0.1464 l -1.160338,0.068 -0.03195,0.3824 -0.03195,0.3823 0.664861,0.1707 c 1.128953,0.2898 1.215662,0.2911 3.554824,0.053 z m -16.868673,0.5189 0.947589,-0.1166 1.257343,0.2421 1.257341,0.2422 0.531786,-0.051 0.531786,-0.051 0.608359,-0.3062 0.608358,-0.3061 0.03654,-0.1236 0.03654,-0.1235 -0.597759,-0.5978 -0.597758,-0.5977 -0.225772,0.066 c -0.124174,0.036 -0.564838,0.156 -0.979252,0.2658 l -0.753481,0.1997 -1.461709,0.068 -1.461709,0.068 -0.459082,0.1006 c -0.252495,0.055 -0.584774,0.1666 -0.738397,0.2473 -0.495968,0.2604 -1.281424,1.1916 -1.281424,1.5192 l 0,0.1032 0.896555,-0.3656 0.896554,-0.3655 0.947589,-0.1167 z m 9.163233,5.7099 0.650708,-0.3252 0.09782,-0.1828 0.09782,-0.1828 -0.08908,-0.3949 -0.08908,-0.395 0.237655,-0.09 c 0.130711,-0.05 0.316224,-0.1689 0.412252,-0.2649 l 0.174597,-0.1746 0,-0.3054 0,-0.3053 -0.18214,-0.382 -0.182139,-0.3819 0.55531,-0.4784 0.55531,-0.4785 0.154255,-0.2983 0.154257,-0.2983 0,-0.3777 0,-0.3777 -0.15317,-0.059 -0.153169,-0.059 -0.888106,0.1762 -0.888107,0.1763 -0.524601,-0.2659 -0.524603,-0.2658 -0.863288,-0.1749 -0.863287,-0.175 -0.260708,0.1709 -0.260708,0.1708 0,0.4556 0,0.4556 0.81751,0.381 c 0.449631,0.2095 0.954632,0.4319 1.122225,0.4942 0.167593,0.062 0.281017,0.137 0.252055,0.166 -0.02896,0.029 -0.403426,0.1111 -0.83214,0.1825 l -0.779481,0.1299 0.02188,0.304 0.02189,0.304 0.215456,0.2294 0.215457,0.2293 0,0.243 0,0.2429 0.407935,0.4079 0.407933,0.408 -0.161006,0.6729 -0.161006,0.6729 0.06622,0.1726 0.06622,0.1725 0.250175,0 0.250177,0 z m 1.31924,3.0071 0.648137,-0.1661 0.997551,-0.4704 0.997549,-0.4705 1.00667,-0.6715 c 0.553668,-0.3694 1.363058,-0.973 1.798643,-1.3413 0.435587,-0.3684 0.877108,-0.7369 0.98116,-0.819 l 0.189183,-0.1493 0.56546,0.5584 0.565459,0.5585 0.0763,-0.6107 0.0763,-0.6106 -0.06762,-0.8798 -0.06762,-0.8797 0.07316,0 c 0.04024,0 0.345052,0.2136 0.67736,0.4747 0.332308,0.261 0.63733,0.4747 0.677825,0.4747 l 0.07363,0 -0.07067,-0.5011 -0.07066,-0.5011 -0.26308,-0.5488 -0.263082,-0.5488 -0.534129,-0.4802 -0.53413,-0.4802 -0.541782,-0.1574 c -0.297979,-0.087 -0.897793,-0.2035 -1.33292,-0.2599 l -0.791139,-0.1025 -1.148709,0 -1.148707,0 -0.140131,0.1846 c -0.07707,0.1015 -0.141641,0.2464 -0.143487,0.3219 l -0.0034,0.1373 0.342827,0.1178 c 0.58411,0.2006 2.03726,0.9798 2.606102,1.3974 l 0.541999,0.3978 -0.05315,0.053 -0.05315,0.053 -0.878296,-0.224 c -1.019821,-0.2601 -2.200467,-0.427 -3.053016,-0.4317 l -0.599431,0 -0.07411,0.2335 -0.07411,0.2335 0.186658,0.1093 c 0.102661,0.06 0.524425,0.3283 0.937251,0.5958 l 0.750593,0.4865 0.632911,0.6027 0.632912,0.6027 -0.158228,-0.047 c -0.08703,-0.026 -0.789075,-0.2712 -1.56011,-0.5451 l -1.401882,-0.4978 -0.156418,0.06 c -0.08603,0.033 -0.183246,0.1299 -0.216036,0.2154 l -0.05962,0.1554 0.747665,0.7186 0.747666,0.7186 0,0.1418 0,0.1418 -0.151651,-0.058 c -0.08341,-0.032 -0.438837,-0.1103 -0.789841,-0.1739 l -0.63819,-0.1157 -0.23864,0.1251 c -0.131252,0.069 -0.421889,0.289 -0.64586,0.4893 l -0.407218,0.3642 -0.354162,0.148 -0.35416,0.148 -0.435425,0 -0.435425,0 -0.311098,-0.1838 -0.311098,-0.1837 -0.272455,-0.5569 -0.272455,-0.5569 -0.329347,0.054 c -1.163566,0.1896 -1.636531,0.2787 -1.93856,0.3653 l -0.342264,0.098 0,-0.074 c 0,-0.041 0.474684,-0.3331 1.054853,-0.6492 l 1.054852,-0.5746 0,-0.1663 c 0,-0.091 -0.05218,-0.2184 -0.115959,-0.2822 l -0.11596,-0.116 -1.795781,0.4687 -1.795783,0.4686 -0.05712,-0.057 -0.05712,-0.057 0.432351,-0.4113 0.43235,-0.4113 1.483764,-0.7529 1.483764,-0.7528 0,-0.096 c 0,-0.053 -0.105499,-0.1698 -0.234442,-0.2601 l -0.234441,-0.1642 -0.38687,0 -0.386871,0 -1.563219,0.4761 c -0.859771,0.2619 -1.606878,0.4615 -1.660237,0.4438 l -0.09702,-0.032 0.88387,-0.5841 c 0.486128,-0.3212 1.156812,-0.7456 1.490409,-0.9431 0.333597,-0.1974 0.60654,-0.3977 0.60654,-0.4451 l 0,-0.086 -0.60654,0.062 c -0.333597,0.034 -0.9851,0.1 -1.447783,0.1459 l -0.841245,0.084 -1.200038,-0.3033 -1.200039,-0.3032 -0.348508,0.2658 -0.348507,0.2658 -0.210911,0.3451 c -0.116002,0.1898 -0.286641,0.6029 -0.379198,0.918 l -0.168285,0.5729 0,0.665 0,0.665 0.531331,-0.2094 c 0.292232,-0.1152 0.573626,-0.2095 0.62532,-0.2095 l 0.09399,0 0.06399,0.6066 c 0.08298,0.7864 0.348333,1.9425 0.474943,2.0691 l 0.0991,0.099 0.757631,-0.8113 0.75763,-0.8112 0.08834,0.03 c 0.04858,0.017 0.435825,0.4211 0.860535,0.8985 l 0.772199,0.8682 0.57568,0.4309 0.575681,0.4309 0.857432,0.426 0.857433,0.426 0.935816,0.1357 0.935817,0.1358 0.986884,0.012 0.986883,0.011 0.648138,-0.1661 z"
       style="fill:#ff00ff;fill-opacity:1"
       id="path66989-0" />
  </g>
</svg>
