<?xml version="1.0" encoding="UTF-8" standalone="no"?>
<svg
   xmlns:dc="http://purl.org/dc/elements/1.1/"
   xmlns:cc="http://creativecommons.org/ns#"
   xmlns:rdf="http://www.w3.org/1999/02/22-rdf-syntax-ns#"
   xmlns:svg="http://www.w3.org/2000/svg"
   xmlns="http://www.w3.org/2000/svg"
   width="14.111113mm"
   height="18.607204mm"
   viewBox="0 0 50.000004 65.931037"
   id="svg2"
   version="1.1">
  <defs
     id="defs4" />
  <metadata
     id="metadata7">
    <rdf:RDF>
      <cc:Work
         rdf:about="">
        <dc:format>image/svg+xml</dc:format>
        <dc:type
           rdf:resource="http://purl.org/dc/dcmitype/StillImage" />
        <dc:title></dc:title>
      </cc:Work>
    </rdf:RDF>
  </metadata>
  <g
     id="g4139">
    <path
       id="indexColour"
       d="m 13.339861,14.038283 -7.1239049,10.406488 0.2444477,15.330363 2.9682936,-0.03492 1.2222386,8.835039 c 2.51033,1.595927 -1.4516001,3.203551 2.706386,6.96676 1.230968,3.279673 0.64604,4.883133 1.178586,5.438961 1.58018,2.627813 2.601623,1.344463 3.902434,2.016694 5.238165,3.463009 7.6128,2.87517 15.714495,-0.715883 l 2.095266,-2.182569 -0.488895,-2.88099 1.396844,-0.567468 L 43.581535,39.94974 45.118063,26.051142 42.114849,19.905028 26.260668,6.3556404 Z"
       style="fill:#0000ff;fill-opacity:1;fill-rule:evenodd;stroke:none" />
    <path
       id="indexColourLowlight"
       d="m 1.1174757,36.597314 c 0,0 -3.0764751,-23.410789 11.6636473,-32.3369397 11.648218,-7.0537914 24.374929,-0.6285797 24.374929,-0.6285797 0,0 14.531076,5.8742274 11.855713,28.8099084 -0.04938,0.42333 -6.062321,-11.468587 -6.062321,-11.468587 -1.48109,-2.13977 -5.686027,-2.184273 -6.329011,-5.790729 -2.482161,-1.674155 -4.056375,-4.256259 -7.446485,-5.022465 -1.574214,-1.4646289 -4.894483,-1.6720978 -7.23696,0.844279 -3.739322,0.560796 -4.82464,0.981907 -7.236959,5.034812 -0.255503,2.755358 -4.7713806,2.647185 -7.261834,5.751754 z"
       style="fill:#00ff00;fill-opacity:1;fill-rule:evenodd;stroke:none" />
    <path
       id="indexColourHighlight"
       d="m 21.930452,11.10491 c 2.910091,-3.9810056 5.401131,-2.5841617 7.682642,-0.62858 l 2.86353,10.895384 -3.981006,35.130628 c -1.210598,2.071985 -1.373563,5.121761 -3.422267,6.285798 -1.513248,-0.907949 -1.769336,-4.469901 -2.654004,-6.704851 l -3.142899,-34.22268 z"
       style="fill:#ff0000;fill-opacity:1;fill-rule:evenodd;stroke:none" />
    <g
       transform="translate(1.966953e-6,-986.43116)"
       id="outline">
      <path
         style="fill:#000000;fill-opacity:1"
         d="m 22.890623,986.43116 c -2.49585,0.68705 -5.110413,0.99154 -7.420998,2.25835 -6.9744704,3.17102 -12.2786552,9.71102 -13.7969576,17.24019 -0.87604221,3.7018 -1.3495897,7.5277 -1.67387772,11.2843 -0.04975156,3.0338 0.96612698,5.9734 1.76811882,8.8666 0.9509235,-1.2805 0.5843146,-4.5986 1.2921806,-6.6081 0.4885183,-1.6173 1.1263469,-4.8487 2.5045925,-5.0531 -0.3851503,1.39 -1.1856115,2.5379 0.4389324,3.3153 -0.6662428,1.6127 -2.4298921,3.8852 0.4196378,3.265 -0.4160729,1.8636 -2.3866163,4.742 -0.3682549,5.4132 -1.1769693,3.1056 3.0039024,-1.708 1.9094208,1.4212 -0.540481,1.2438 3.0000933,-0.1059 1.2045493,1.7865 -0.063706,1.935 1.265325,3.8621 0.069841,5.9364 0.9806296,0.1502 2.6679406,-0.6714 1.9117316,1.43 0.651964,1.7147 -1.6349601,4.0618 1.286777,4.0057 -0.452704,0.9968 -1.351508,1.9213 0.330366,2.1787 -0.670059,1.5145 -0.129171,1.6973 1.236887,1.139 0.303148,1.3006 -1.916879,5.2914 0.692842,3.7693 0.879446,0.8267 0.875414,4.5434 2.111561,1.7991 1.622171,-2.0036 3.314531,2.4186 5.615522,2.1465 2.255489,0.8448 4.722139,0.1044 6.918581,-0.6515 2.044583,-1.2172 4.004027,-3.643 6.170008,-1.2124 0.449469,-1.0895 -1.128345,-4.3286 1.324823,-2.3992 1.837362,0.042 -2.758361,-5.6845 1.337476,-3.9148 1.67894,0.01 -1.755474,-2.3144 0.907674,-1.9177 -1.138675,-1.4724 -0.136034,-1.5721 0.683284,-2.2644 -1.22226,-1.6559 0.215896,-2.1284 0.820337,-2.0157 -0.689901,-1.1957 -0.333296,-2.48 0.03206,-2.7877 -1.067862,-2.1171 2.670117,0.3064 1.235163,-2.0898 0.603665,-2.0252 0.08623,-4.9803 2.309684,-5.672 0.713193,-3.0738 0.714102,-6.1889 0.866574,-9.2825 0.761262,-1.066 -0.537389,-6.8977 1.359858,-3.7052 1.467568,2.8959 1.582989,6.3216 2.865312,9.2403 0.399874,-2.2253 0.765294,-4.5995 0.74567,-6.9148 -0.05614,-2.1783 0.219187,-4.387 -0.4131,-6.4988 -0.451178,-6.5481 -3.356391,-12.89128 -8.273133,-17.28942 -3.692745,-3.62058 -8.77982,-5.59164 -13.887986,-6.00758 -1.366229,-0.49101 -3.056015,-0.0868 -4.535156,-0.21094 z m 1.318359,1.16992 c 3.846781,0.0407 7.754505,0.65043 11.291934,2.18688 2.278873,1.44504 0.03435,4.33164 -1.877434,2.26577 -5.224621,-2.5649 -11.493502,-2.55804 -16.753317,-0.1113 -1.47108,0.80694 -2.721205,1.21192 -1.906931,-0.99232 1.258852,-3.18262 5.841215,-2.66205 8.712534,-3.31292 l 0.533214,-0.0361 z m 13.085938,2.93945 c 8.467684,5.14074 12.324003,15.48407 11.859722,25.06197 0.01554,1.467 -0.209331,4.4197 -0.908117,1.4582 -0.371811,-2.5676 -1.773425,-4.9294 -3.533571,-6.6189 -0.897621,-1.383 -1.072301,-2.6238 0.87245,-2.5489 2.323782,-2.6943 -0.293913,-6.2423 -2.158669,-8.40159 -1.944971,-2.24304 -4.133103,-4.26873 -6.426739,-6.14999 0.0878,-0.93387 0.03273,-1.8903 0.294924,-2.80079 z m -23.232422,0.006 c 1.087405,2.55658 -1.906323,4.00228 -3.431816,5.61467 -2.8131074,2.9948 -5.2707304,6.616 -5.8035724,10.7686 0.3617125,1.8448 2.5906227,3.393 0.1144357,5.0216 -1.950213,3.0104 -2.3840416,6.6532 -3.3595161,10.0306 -1.11057611,-6.105 -0.08612,-12.4002 1.5420041,-18.3183 1.5018852,-5.78825 6.0105254,-10.06904 10.9384647,-13.11717 z m 11.042969,0.24414 c 3.804048,0.0927 7.38634,1.58928 10.759765,3.22657 -0.09185,2.06669 -1.023879,6.76036 -3.629666,3.55226 -2.174838,-2.22974 -5.798986,-4.91823 -8.773325,-2.41177 -1.777479,1.80986 -4.680122,1.86669 -6.360681,3.84388 -1.093682,-2.10996 -3.44275,-5.62669 0.290137,-6.33408 2.409998,-1.13552 5.055597,-1.75443 7.71377,-1.87686 z m 11.785156,3.33008 c 3.505788,2.85478 6.900618,6.23375 8.632898,10.46395 1.212163,2.659 -1.842975,3.7747 -3.182604,1.4389 -1.364538,-2.2655 -5.963845,-0.6778 -4.726371,-4.0585 -1.117522,-1.7963 -2.98948,-3.14277 -1.452511,-5.52378 0.174861,-0.77764 0.284135,-1.64039 0.728588,-2.32057 z m -22.898437,0.54102 c 0.945556,1.79373 3.076308,4.48187 0.09364,5.54413 -1.610939,1.5937 0.796021,4.1528 -2.099273,4.3977 -2.5161299,0.1564 -3.7979651,2.7279 -5.7364931,3.4627 -2.4369976,-2.8751 1.5986473,-6.4176 2.9749613,-9.02131 1.3039568,-1.71808 2.7389198,-3.50094 4.7671658,-4.38322 z m 11.34375,0.5039 c 3.100299,-0.34875 5.067281,3.05638 2.721804,5.34113 -0.984893,3.0426 1.863583,-3.14601 2.231467,0.01 -0.336365,1.2297 -2.886007,4.6016 -0.438155,2.0934 3.093716,-0.078 -1.146401,3.4054 -0.313447,3.7532 1.850789,-2.7818 3.286748,2.2123 0.367428,1.8768 -3.196179,0.2157 -6.474246,0.841 -9.635504,0.025 -1.56208,-1.9867 0.608087,-3.2684 1.791214,-1.8442 -0.838454,-0.9519 -2.065736,-5.9051 0.06131,-3.4801 0.383756,0.791 1.653404,3.192 1.1192,0.7733 -0.416865,-0.9382 -3.134486,-4.70321 -0.84895,-4.16229 0.800946,1.02169 2.355766,2.29009 1.075898,0.11916 -1.618551,-1.95969 -0.501086,-4.07316 1.867736,-4.5054 z m 4.871093,1.92383 c 1.621089,2.05565 5.471476,2.78702 5.210407,5.9414 0.266717,3.1254 4.590067,1.4318 6.167599,3.5676 0.939258,1.814 -3.698685,0.1846 -5.044282,0.8508 -3.087858,0.9947 -5.272064,-1.6102 -4.802848,-4.4923 -0.569267,-1.9049 -1.352024,-3.9139 -1.530876,-5.8675 z m -8.984375,0.52539 c -0.665103,2.50021 -1.138433,5.66981 -2.045141,8.19111 0.03453,2.2401 -1.33972,3.3308 -3.437026,2.0269 -2.212669,-0.7831 -5.62979,1.2839 -7.3013408,-0.067 1.3962235,-2.6172 5.4704348,-1.9224 6.5776688,-4.6053 0.355075,-2.7241 3.310818,-3.70799 5.177837,-5.32497 0.325794,-0.13418 0.675695,-0.21001 1.028002,-0.22094 z m 18.597656,10.31641 c 1.630155,-0.5708 5.523017,2.7918 2.062152,1.8553 -2.706689,-0.7524 -6.897754,1.0165 -8.694929,-1.1449 2.066726,-0.5001 4.465049,-0.4067 6.632777,-0.7104 z m -27.220703,0.625 c 1.453178,0.1431 4.601481,0.2364 4.966567,0.9439 -2.669357,1.4114 -5.820252,0.025 -8.6775172,0.6468 -1.7082082,0.7446 -2.2679534,0.071 -0.5798094,-0.8877 1.3475411,-0.6064 2.8681236,-0.4441 4.2907596,-0.703 z m 17.990235,0.6523 c -2.484108,2.529 -6.535966,2.8163 -9.539754,1.0575 -1.672615,-1.9729 4.58435,-0.5379 6.182764,-0.8571 1.121473,0.018 2.248841,-0.015 3.35699,-0.2004 z m 1.742187,1.3555 c 3.427236,0.5088 6.942462,-0.2549 10.337169,0.3058 2.673333,0.9188 1.59557,3.8021 -0.765282,1.695 -2.520922,-1.5059 -5.631078,0.1764 -8.237583,-0.8982 -0.507564,-0.2789 -0.986081,-0.6333 -1.334304,-1.1026 z m -21.519531,0.3945 c 2.264486,0.4468 6.052122,-0.894 7.248675,1.0411 -2.368716,0.7247 -5.228954,-1.1611 -7.791516,-0.055 -1.3328016,0.4879 -5.6932728,2.4229 -2.7849707,-0.1958 0.9526288,-0.738 2.2261961,-0.5172 3.3278117,-0.7906 z m 21.744141,1.4395 c 3.172294,1.5495 6.743693,-0.3762 9.904638,1.1334 1.568533,0.2686 2.469043,2.9425 0.222538,1.4565 -3.359682,-1.2547 -7.197428,0.7134 -10.576395,-0.8419 0.09005,-0.596 0.25155,-1.1792 0.449219,-1.748 z m -7.134766,0.049 c 1.296924,0.5996 4.470119,0.2658 4.674489,0.4832 -2.726468,0.2601 -5.051173,1.8562 -7.811459,0.6187 -1.153515,0.2693 -2.874548,-0.6534 -0.604571,-0.3615 1.277145,-0.059 2.512884,-0.4202 3.741541,-0.7404 z m -13.984375,0.2519 c 2.253482,0.4852 6.617698,-0.963 7.233549,1.7908 -1.72709,1.685 -4.649533,0.1659 -6.849942,0.2932 -1.58464,-0.1479 -6.7238361,1.5402 -3.5332012,-0.8502 0.9649045,-0.6007 2.0734602,-0.9017 3.1495942,-1.2338 z m 14.107422,2.3829 c 1.440319,0.7884 4.087111,0.5854 4.965357,0.7564 -2.871229,0.2265 -5.295989,2.0917 -8.01496,0.5351 -3.666247,-0.8708 1.894324,0.056 3.049603,-1.2915 z m 14.541016,0.2109 c 1.854422,-0.3631 5.31363,2.6504 3.705969,3.6703 -2.01224,-1.8766 -4.832292,-1.9423 -7.393681,-1.4184 -1.391135,0.9741 -6.107075,-0.6942 -3.348616,-1.865 2.321089,0.2466 4.701097,-0.2945 7.036328,-0.3869 z m -28.179688,0.3594 c 2.109002,0.3833 5.114614,0.1289 6.660624,0.4577 0.599524,3.6342 -4.753708,0.3478 -6.806841,1.3346 -1.336326,-0.2261 -5.1438077,2.3198 -4.8603133,0.656 1.2823535,-1.4517 3.2518033,-1.859 5.0065303,-2.4483 z m 19.707031,2.2675 c 3.463912,1.4596 7.511476,-0.6304 10.830549,1.2755 1.761998,0.6022 2.288785,5.5244 0.214327,2.2462 -1.928429,-2.059 -4.828091,-1.4209 -7.269547,-1.0139 -1.757369,-0.078 -5.265895,0.4614 -3.775329,-2.5078 z m -6.230469,0.088 c 1.474721,0.1266 6.632668,0.5745 2.606409,1.0626 -2.354391,1.5437 -5.21878,-0.3146 -7.129243,-0.6117 1.521607,-0.1751 3.09924,0.2663 4.522834,-0.4509 z m -12.302734,0.5469 c 1.73993,0.3493 5.89309,-0.7227 5.925467,1.2874 -2.346659,1.9888 -5.462211,-0.6271 -8.073087,0.7383 -1.609996,0.2828 -3.8862882,3.5148 -4.4741079,2.7821 0.9036698,-2.8198 3.4927315,-5.2545 6.6217279,-4.8078 z m 12.550781,2.3379 c 1.357753,0.5494 5.994002,-0.2241 2.400544,0.6452 -1.928527,1.2401 -4.549288,0.2644 -6.135997,-0.256 1.240027,-0.1339 2.56284,0.1371 3.735453,-0.3892 z m 12.072266,0.1426 c 2.694918,-1.0723 6.439869,2.5232 5.710979,4.0944 -2.101709,-1.9496 -5.042922,-2.0664 -7.737582,-1.8377 -1.578004,0.6002 -6.509691,-0.5414 -3.313901,-1.7841 1.78896,0.066 3.603864,-0 5.340504,-0.4726 z m -24.085937,0.289 c 1.825105,0.8866 5.813613,-0.9856 5.959268,1.4351 -2.887902,1.541 -6.830532,-0.03 -9.8576766,1.6757 -0.8368006,0.648 -3.3097647,2.0991 -1.8332654,-0.052 1.304493,-1.933 3.28531,-3.3998 5.731674,-3.0584 z m 11.492187,1.7969 c 1.445143,0.061 6.277512,0.174 2.533425,0.8051 -1.987983,1.6585 -5.123331,0.5493 -6.668316,-0.512 1.436696,-0.059 2.868766,0.753 4.134891,-0.2931 z m 12.550781,0.7988 c 1.782312,-0.4214 5.375661,1.9379 4.388709,2.8403 -2.294696,-1.6505 -5.14658,-0.9849 -7.585466,-0.095 -2.053895,1.2605 -5.555488,-2.3622 -1.98279,-2.3492 1.731075,-0.059 3.4595,-0.1929 5.179547,-0.3962 z m -24.105468,0.2071 c 1.941691,0.5219 5.10561,-0.848 5.94547,1.2986 -0.705408,2.0088 -4.506803,-0.4766 -6.372672,0.3448 -1.336264,0.5537 -5.2697579,1.4993 -2.305379,-0.6649 0.803756,-0.568 1.785322,-0.7847 2.732581,-0.9785 z m 10.970703,1.416 c 1.372279,0.1341 4.971986,0.5134 4.880456,0.5764 -2.223627,0.8371 -4.296557,1.854 -6.423628,0.4469 -3.578052,-0.7763 0.717882,-0.4209 1.543172,-1.0233 z m -10.265625,1.0508 c 1.855303,0.8775 4.80737,-0.222 5.955566,0.7252 -0.144854,2.8668 -4.441212,1.5777 -6.409048,1.7405 -1.429346,-0.3688 -4.7394403,1.9084 -2.889823,-0.8563 0.675034,-1.1408 2.051088,-1.7153 3.343305,-1.6094 z m 24.173828,0.053 c 2.379247,-1.1422 4.759606,5.072 1.634743,2.4808 -3.10028,-1.7974 -6.950952,1.1197 -9.906228,-1.0067 1.843841,-1.2977 5.241434,-0.2414 7.627227,-1.3836 l 0.644258,-0.091 0,5e-4 z m -17.230469,1.3242 c 2.241608,1.368 6.280011,0.019 7.680529,0.87 -2.580294,0.5541 -5.495411,1.2939 -7.680529,-0.87 l 0,0 z m 15.136719,1.5 c 1.625582,-0.5191 4.77162,1.134 4.221292,2.5662 -3.154113,-2.2824 -7.046138,0.638 -10.115393,-1.3759 -0.681194,-2.0904 3.278668,-0.01 4.588259,-1.0191 0.434622,-0.062 0.869349,-0.1237 1.305842,-0.1712 z m -16.244141,0.4746 c 1.4534,3.7451 -4.428832,0.8913 -6.366156,1.8886 -1.225258,0.3488 -4.4535534,1.3917 -2.34058,-0.8187 2.195311,-1.6202 5.266553,-0.6997 7.837511,-1.0284 l 0.435206,-0.018 0.434015,-0.024 4e-6,0 z m 1.65625,0.7344 c 2.291693,1.1618 6.191614,0.5514 7.454632,0.7176 -2.186219,1.1448 -4.484277,2.1937 -6.480594,0.1654 -0.429677,-0.1131 -0.917558,-0.3846 -0.974038,-0.883 z m 8.6875,1.3399 c 2.716442,1.3402 5.889868,-0.8837 8.471503,0.723 2.191682,2.2907 -2.670636,-0 -3.853452,0.6431 -1.105175,0.3912 -5.476931,0.8158 -4.618051,-1.3661 z m -16.251953,0.4062 c 1.860947,0.651 5.912276,-0.4716 6.264142,1.4813 -2.733321,1.5604 -5.949069,-1.0546 -8.682432,0.5717 -2.9433154,0.5754 1.702306,-2.6276 2.41829,-2.053 z m 7.564453,0.8418 c 1.94086,1.0095 6.324258,0.3879 6.849008,1.1145 -2.006776,0.2801 -5.77764,0.8402 -6.849008,-1.1145 z m 8.316406,1.0273 c 2.798327,1.0249 6.190873,-1.0807 8.645243,0.8426 1.737002,1.89 -3.424855,-0.3404 -4.755784,0.8729 -1.17788,0.085 -5.067182,0.1927 -3.889459,-1.7155 z m -16.341797,0.2403 c 2.219716,0.6147 5.404201,0.1526 7.030614,1.0167 -1.972665,1.847 -4.991458,0.526 -7.444187,0.6636 -2.646604,1.2441 -0.778731,-1.2725 0.413573,-1.6803 z m 10.798829,0.9804 c 1.144632,1.0238 4.862873,0.1976 1.70184,1.3142 -1.280678,0.7116 -5.755265,-0.7931 -2.156919,-1.1208 l 0.455079,-0.1934 z m 5.236328,1.0137 c 2.473799,1.0333 5.208132,-0.598 7.609101,0.4273 1.389431,0.7174 1.987148,2.7724 -0.05814,1.5383 -2.47309,-1.3197 -5.308105,-0.083 -7.783417,-0.7636 -0.352632,-0.3914 0.0929,-0.8314 0.232456,-1.202 z m -9.197266,0.5117 c 1.464744,2.6538 -3.702085,1.2209 -5.224147,1.8085 -1.077046,-0.054 -4.534638,2.0318 -2.607214,-0.3541 2.166748,-1.4882 5.286938,-1.0568 7.831361,-1.4544 z m 4.853516,0.9727 c 1.355276,0.1694 3.873288,0.2995 1.305961,1.1115 -1.165092,0.8184 -3.92394,-0.4975 -4.072376,-0.9117 0.974054,-0.047 1.90504,0.56 2.766415,-0.1998 z m 8.34375,0.3789 c 1.37198,-0.355 5.271962,1.414 4.063378,2.3501 -2.399393,-1.011 -4.929405,-0.3403 -7.405604,-0.2082 -3.760674,-1.818 2.343473,-1.7595 3.342226,-2.1419 z m -18.308594,1.1758 c 1.489328,0.2213 5.571001,-0.331 5.273485,0.5467 -2.048795,1.1562 -5.815229,0.4527 -7.262089,0.7183 0.302199,-0.8085 1.226057,-1.0947 1.988604,-1.265 z m 6.884766,0.3183 c 1.889591,0.185 4.569047,0.3834 5.824218,0.8418 -2.036384,0.1638 -4.254897,0.7404 -5.824218,-0.8418 z m 15.996093,0.8809 c -0.245847,0.1462 0.312344,0.2265 0,0 z m -4.103515,0.1719 c 1.377713,-0.1175 3.712913,1.8393 1.04481,1.187 -1.729551,-0.2986 -6.149892,1.2701 -5.973787,-0.8657 1.610393,-0.2114 3.286323,-0.1399 4.928977,-0.3213 z m -13.261719,0.012 c 2.961787,2.1649 -2.090296,2.4994 -3.570048,1.7197 -1.350716,-0.3772 -5.280889,1.9104 -2.68883,-0.5404 1.920569,-1.077 4.280018,-0.1787 6.258878,-1.1793 z m 2.232422,1.1582 c 1.650647,0.6483 3.4808,0.5877 4.884078,0.9365 -0.08,1.3889 -1.863992,1.8488 -1.176094,3.3058 -0.803931,0.8882 -0.801056,2.8461 -2.606887,2.2691 1.086046,-1.7567 -2.635983,-3.9602 0.301584,-4.3514 -0.806342,-0.4034 -3.182574,-1.1497 -1.402681,-2.16 z m 6.199219,0.7656 c 2.370554,-0.05 5.832964,-0.2372 6.570588,2.6843 0.565528,1.9076 -2.089387,-1.3942 -1.286287,1.2497 0.414534,2.4446 -0.690626,0.7121 -1.784321,0.7319 -2.251049,2.5879 -5.834283,4.6687 -9.411352,4.0015 -2.622477,0.1687 -4.255373,-3.076 -6.038276,-3.4355 -1.49904,2.5546 -1.409849,-0.3412 -2.172739,-1.3974 -2.32708,1.001 -0.1235,-5.1173 2.148484,-2.8953 1.18235,0.4476 5.21188,-0.6678 2.22177,0.9846 -1.524362,0.6741 -1.757813,1.3863 0.09613,0.6233 1.121626,-1.0765 4.217325,-0.1932 1.614887,0.66 -1.632425,0.374 -3.514255,2.5003 -0.651035,1.3078 1.106258,-0.6947 3.152776,-0.3168 1.067386,0.6795 -2.566181,1.1752 2.490682,-0.7863 2.507693,1.5652 1.581829,0.2409 3.282465,-1.3039 4.403541,-1.2623 -1.683087,-1.1706 -0.975275,-2.2228 0.820868,-1.1555 3.821728,1.2405 -4.334071,-2.5837 -0.211143,-2.3909 1.147697,0.316 4.527389,1.1413 1.942225,-0.401 -0.467563,-0.4498 -2.817778,-0.4705 -1.838415,-1.5499 z"
         id="path66989" />
    </g>
  </g>
</svg>
